<mxfile host="65bd71144e">
    <diagram id="R0yiGnuDFbMgmJY_rrLN" name="Page-1">
        <mxGraphModel dx="2983" dy="1210" grid="1" gridSize="10" guides="1" tooltips="1" connect="1" arrows="1" fold="1" page="1" pageScale="1" pageWidth="1100" pageHeight="850" math="0" shadow="0">
            <root>
                <mxCell id="0"/>
                <mxCell id="1" parent="0"/>
                <mxCell id="104" value="arr=[ 4,5,2,6]&lt;br&gt;LIS=[&amp;nbsp; 4,5,6&amp;nbsp; ]" style="text;html=1;align=center;verticalAlign=middle;resizable=0;points=[];autosize=1;strokeColor=none;fillColor=none;" parent="1" vertex="1">
                    <mxGeometry x="-1075" y="-805" width="100" height="40" as="geometry"/>
                </mxCell>
                <mxCell id="106" value="" style="shape=stencil(lVrbct02DPya88ohCV6f0/Q/MhOn9tS1M457+/uCc4aKuJBW9ZtzgpVEElgsAN7k04/HL98fbtH/eH97/f3h76ev7483+eUW49PL48Pb07v+dZPPN/n07fXt4be31z9fvt7//f3LsBx//fH613jCP3dcri70gYr+3/sv3rX7D7/e7Z+fXvb2yUle7IOTSOyjkwr2jdkH5+NiH11M5/apu5DBvlZir+uVxV6cNGKfnfeLfXJeiH10LYN9Zd/vXV2fn10m3yPNpfW8ikuF2BcXV/tK1yvJxfX7G7c359u5va533f/gXQrngGgOOASXiQfpAvO64hBdIUemO+jhDTI/8hiQXA4rILlGnE59sq1OHbZ3HgM0CmANW5weAoLuelkBem4MUF2BNXRXyCeF7Pr6SYMpiOfpnqT1pHUbAgPEyTwbQOhJqyOktgL0HIjzqatB8OvZR7Lo5npa7St1peraGszqvZ44d0G/0PAQ8nw9g/X5Euj3ZBfW4NRwbeR7kivrekVcZ2w3uXCzzzNaj6MfA0fpKVF7SAZSJ70ex40rq0OIxgVh3+gSkLt3nT4/rFGmdF+YS7u+fn9K3KMxGaQyd+zEvoD9lh5O7PP6/dlffE9e/UHTeebPX/1B5UKh34/2Za7obL0rU+c2PfZs/1f7sqXbM39Y96dEai8YX0XXS/YzubCeVynTA0/iN677X5oLlE+AEEun6qPOtLWJg+AiIdAtmjb7SDOlEm5bD7imGdJnOQDfoIzCKF2m3NsAxQlzuYzZvtaZO48BBQ+hNv6GiixXu4tEHmiqbiugefoGzbwBAFyFayBALm6Rv0HPFWSg6mQWOXqu6zm0xAF56pMNkKdUPZNpQI5NT4atoWF2apVGj3VvBbD0N8TsyhetuUrOQYx7t+4yI5g09cMmrz2NUE3AIEF6mBXMMaC62hFQyDloSu0ryfRIpabmSNCmXXgNpSVTQwDTpskUsV3LGBLTWjVC4lQAE7Oa96AM7JnWXdnUCF0lPwNUlPwKYNoid6xzeqWL1lyGvrSd/TEgmV1qLpKDK/oBBsD0gqanUhDQWMKKyN4K6OQNmm9kJYHeZxI+BmgOTQjwJOI0G+AucdGv5J6rWTQ5uMHVggAmM5R60VsbJWOl3roK1c6ZT4lRjPMxpao85wsCGC8pzxX4JF4rKAsFAOSpPo4BgtVO3+qlY0CdvrnjJZZQdNeDAdBFt5kNdtzKzmF4TjcA9kmbFNkD2LZaqhTau1DAwS6REO02ochsMp4COgIy26WOOlcBTNf3joWGAljhqQAMUeHb2rA06enSNcoHAZgUZbYzTt3bAFivVgHF5mkeQNkAmPzppks1XIOddMVyYDgf4dZuROKFOBlMagOIbWtDkXgdosgaFyTQDWsIzUAKONgltoZuvJWXA8F7k4LEJeYbfa7xf4q+sQgDaDyoPwjIs6jaJYjO1iCz2t5ruIucBbtUaSGnWTEZQGeZXWnDCCYmXJspswZVscy+Keed/mHlbtvcfwdgXZ/mDTF1mtlrM3JGvYssum7SYuuG/3TgM12Jcn1LY8eAYGiAL0K1cTRClDW7SjF03Glno4hJvI2uoYQp//f6nvhGttxX6UFkM64aAUGcKYtZdJnV4zEgGJlYqDxJzQREpu6ayqzQdwDmS0lwZqipnbUFUzDqW2glJw37cIPwWeO9mPI1zrrorFGBxBSuWiHQq+y8926bLQpga4gdyVWLENolq1gQKHsm4kuxoOprlfa7Y8aBhtIta7ZEPVfo9GXa0bUjDeXn+qFRYxMKCB0bRi1yQMOTboED6mz57vqhzJfGbHLd1tonLRwD0tz1XU+XnUMQVK61zpM5a2TDOVTezgkBhWjNvKjBiwCj1UF7/X0Nn8pFYsFZSN2mQcfE6jzMKjoVS4JNvsLb6hFLAc13mXnRLEU2e34Tw+Osd8x+iA95bKmP2RJ9Psyex+yKOIQR0BezMWvPZ28eu4EXsz2P1HUxO/TY8BmzSeIPHu95aB7l9lCHpUTJ2mO7NMWL/YHZfOI3o8LsEk57uZj6YA4fnXg6y4S2ivBBl+m6a4pm8RixqSI8D8i8ebDZ8/1M2FeV4BLxn4znK/5i9gn2sdGbYHV672bPlWbD6jHyYjB4TKzj3hBLSsF8kcx++llSApcbTsLGsQnb7SMq2BuMHA+Xo0zIYuMXlic7poHA9fsYZcKFwkx5dAzpV2IcN5OY5jK3YAJvOsWCnTbN/mxOop4G09WwVSVnUtbcsqO51Yo6yl1igr/SC22Scdpb6L0ipTa4VZjpmEepM63JKfF7SAGHBYl63ai44CISv2WazUWwOcM5qxkxDGiPMHVsiQRabeWAZBqm+jqrkqGM8LxuN+Wfp9c21B4cmndP1B787cK+YuPB0yat2sP+eDrDU3vwH0+7xmoPtain9wizmRx52pkZ9vh8poWGPe4PSzW5YqPS03opmzu1nubWsf/oPyzeP3wL/dJe//h55f3b0/Pz/cb8/v/xirz+dL9eL5//Aw==);lineShape=1;" parent="1" vertex="1">
                    <mxGeometry x="-1031.7068918191242" y="-799.2946966193366" width="5.454409299998558" height="12.048855174268237" as="geometry"/>
                </mxCell>
                <mxCell id="107" value="" style="shape=stencil(lVrZctw2EPyafUXhHuDZcf7DVZYjVRTJJcs5/j6DbIG70yCb0ZuOGYKco6enyUv69OPxy/eHS/Q/3t9ef3/46+nr++Ml/XKJ8enl8eHt6V1/uqTPl/Tp2+vbw29vrz9fvl5///5lWI6f/nj9c1zh76tfdy0Op+j/uf7BOy///eHXq/nz08udeWguW/vgcji2j9UFb+yjE2KfggvZ2CdXPbEXtM9OiH1OriRjX1zrxL67Goy9OF+O7UvB6zcXyfNW73ox9t3lROwL5iv4eYe7DuJdtAEKwQnJsGSX7R2F6DoJkTSX4JbyPHPXoQVXxDpo1EjSml6vWYfqOnOoLlfr0OYl9h2aq3DC1hi7Dl2jbk/QRigkDz1iYWhlsyj17IKtPC3tzhyKS9Bq1ZVKHKpLcEJzgRR3FxfhofsMw76DXs+GVfs7ksSpQ7MnJI0bSVzvmOmUXOMO0q1DmYE+coAOTRo3EqXgFUJtIhSlKourHgFh6s6zVKuD7aDsKQwPBxumrCjAMqcOtlwVOQOPa7NxzZkC03Cwcc3VeX5LDW5JeMupg61vRXPPmrq7YrGy+LMTgg1rCRQrtb4FHJJL3CHBvMocmGSW/+ZQZ9ceOeAziBOWaS1/iFJ3kUwUBaZiB4ROvcqeIWN510DxfmClfeiq4MrCmmZ/bQ554sK+wzY0N4fKkcy7YPuhCmUyOoIyOLTZtEdDTuwz6KxPJKw6Rqs9QcK8xL5DxMQJB4Hm5yNuDpk2kHIHCKsowSG3JBWBTGQGet+hYHnrmYUwLH3EBA6dzl0NYrRhVYKTiUNV1LBh1UB3RhLr/PfmkF0ieahLphunuTXOO94chKJGWeaD1i8b1AoqAGRtGwBHTBqmqPYgpd4RqYByLlatOg0KOCTKEnPBZaDzPOhUhsE+SBopDeUi1ZaGoi27JSVgAg5CFw5lndDTOmIY11CqnRcHNh8ibmQ3erN/gKu2MO4I1IEDtM/JAQtVv5GbA3vg0Z1X6rYx39kzWF3oodqzcehxhR48hcTHT3p6Z5+pvSS0Z3Nko/B39mz+h6VEO8WW6OJqT8ArTnJ9f//0+n3JVyb5TXMpuo8/uX7CiTPyS+pTuUhA+0bytSko9/Y0PjCfbtvAQb6aze95Q+4cQG7IIy+/7VgH9nl9YNrwYSlohli7DUkC5Occui8I2vBxbUgKQGWJJ5saAcnsaBiKuB+0LyhFjMWeVehG1++mEltzouAyqHOP0Qnd8ssyWVnOUnMVuj5TlM4KEwBDiY6BXBc6ESmXzVsV3DGcRma3MhxEig279x0yUqLGK1VZmgcHLpwpDwQ6ocTRMy4bcNo0njjd5EB/UfIbGL2uSECUXjP8rQ3lRSXwjEPJwhB0RWB5EE2cPWGIpuyEhGrKbfE5WnNgKEjhurBgA+mqxqa4PiIImPpUbC/SIALvEi6RtrQ4eCrNaeVkm4faqKo1ahN0AqG62dCFbVi1utgS0pb3KWMXY/KLR71GC54ttIoRQHcqRw1FIdBr6omqlfCVgXY51f4yDpQhIbETMoLAEKmYw7LFK7SxtxhDc7INNIQ2JqlWxNYh5XGHZAdK8VPBOXKoH5MjKz7DmeBZ8cXKmaRasafPRNuKItWZLFzxbdKZ8FxRiTiTtpf99Ew8ryjwDHn+5D2JjVKqdMEYDvACoNCRpQ7BJi4lyoj7Avcp8mcouESmMG/yUFK1mR5SAzthQY3x6pM5xMWh0jk99B8bpVicJx3XFnKiuxaFe0GSOJZXJtoWBLLbcnA04wq8XeVy5E1L3ByECs/KLIA6KH1vbLCXZd/jI2uwGRvWkOgCrUMWbynOleiI8+Eb4kCZQFneq/CNUodBAUWVjpMsi7BNJRsFOUizohS5/sAHa1+45NERMDJX/fICMBPTjkQ/fFtNPwuRWWHTXPcSEn7B6Hja+IJw6umblOWTEE53ZGLIzZxhhKC44DmTn6T6Zh5J4QjWpaeDQz729U5DTFdzhj1Y9FwG6vNi/9c8Y5ooG/rYo56a6w+3b6K+PT0/Xz+puv8/fkOlf7p+f5U+/ws=);lineShape=1;" parent="1" vertex="1">
                    <mxGeometry x="-1026.3569492596394" y="-799.5731865315865" width="2.6743546431893472" height="11.509700536267866" as="geometry"/>
                </mxCell>
                <mxCell id="108" value="" style="shape=stencil(lZzJkt3IDUW/RltGDsxp3W7/R0e02lJYljrU8vT3RlpOvuIFeWjtSiXgVQ4YLi6Q713+6Y8Pv/z+/l0Kf3z7+uWv7//58ddvH97lP71L6ePnD++/fvxmP73LP7/LP/325ev7v3z98vfPv37/9++/TMn509++/GN+wr++6+1tG2VqpfDv77/JW+v//cWfv8t/+vj5rXzZRlb5CvJ5q0nk//cB1/Jxy/Ekv28p3svnsbUh8jvJt7W9l3wtIF+2pusZCeSzfn7ZUgD5uI0g8jucfw5bzCLf4TxTXx+35Cuep/13TyJfB8gXXU/b0g7yeStD5DutJ23h/Pm2IbivFNZ1LvmxRbDPOJa5vOQHyfctnu8rhq01ULADPW84xq3CjqNd6PnGYtp2WtKuLhnzluEOTCHIHszJaA95i7Iks2paUlqfdyjULZOCuf352mLbCp1S2PazndrNNHBMu2e5Brto2LOZ2XkHKW4JDM+We74Es9wK66lbOR9pOm7lUr5stZ7lLVBQIF1udcgfnn0dWLZxPh87AQy8esN2wpUC0VbP8hb5Apx/2uJ5PTltBdYfVxo65I8d3ciL/VikL3D+cZ3GIV8fPj/sZ/nDoi7lw7LGQ35gojT58+db5qQoETRIWGYOcJ5hpblD3hIlBBUvbx4P5+nlO9qDlx9bB38Mas8lIrCJGtdL3jraQxb5wnlA40MxJALrj1s/23MZ+PkWcSVvRwRm5o+CC/Ly0Bt/lxRQC6axvGDDId/QPnf1rzowxexbO9t/C+iPR8I65BPGq6K4sll8hvuqiltb2TKspy7rPeQtI8D5N81HreF99bXaQ76j/XeNz439a2z5bG89YLyyhC0BsSdMeKbQzx7WM0aIiavkL+xbJBx0ZJRDoSwvusNBu4BRQ9O0aStGZA9ti+T1ZcGkNwqYZqoCp95XxXKtYIYkpzTWIu8Qr0SuEVasvIPUAlVMgUzPYrVglRFxSRYcR1cFOqUZvc6bHowmLLzIsZrCoLqjuLojL4RxV2iNqgqDKqG+ZbmHnU9prATzRmFwLZrklAr+BYNkEsRMgfaQd2dLdeHyawXzr3MYHm0LVB9bfdZUgeLkHlZ9eCh0rNh3V9uYAlEIBpxKVAWqMXdXg4/BSxqaPE2BwJdhIfW4sQ76WmFf4PiNQoR7MHQj+WdumpbkC/GOFaDhG0EwpkAJxQBOc7ZEkN8QTnPWShc3IU5RBQQB3d10QdRWh5YJphDgL7So/Mw4Qtu1QlJga3GpQBZtectyDwkpIwNSkoEsejfIoq044wuIPQ1KKRIYyIgYlhIWrrMtGTiS8tSQQIFNd8dXGNYgJNDjgqdv4E+DPRicEluy35BPGzoKZ4/rnKfnigUTD4Q/vaotTdAKSdHAThYUWpButWsSRGbWFWlJjgdqfEpmakWAdFgGf61gF3fetHk5KqQF/A+Fii46HfJ803XnPewal+rDpoteXA2rvrlWqFs8L6l0NA1T6GcXLRXrq+FiqxXoVBCbgjAelvUooVj6EOw98yotyZD2+ZR25oRmCjyfkmEDinyWZIN0NxLyqFNB2hthefntkqSf05b93m5aiDAumuaxOiaPmJWZxmVJAXs6M40LF9lXsXmnIAT4hO90ca66n30MWpKlLKFrH4xvV3BiZRTVcbNaODtQ7OxAWV00Mva2uJSEky98rFHBenxw0aC4NTIpY9FbOxfMelpCEQgXA8bWmbIEYCENZUlU2jsd+1+WxKU+aYtIuYMBcqYVy8o2VL5goWsJOUlIwhuwfCyVdMb+nWVX4WGZxLHkKt2vhLS55dYmnablF9fyVXnDiE5gmVV4zIj4oiaVtw3R+h3LFVZSuS6TuhYAYZVBd3VYcp8P51OKlmG8/uL6uRFjxKw8xYMRJ+x9AfeXfKf5hK4YNS4HvZOXOvUg3q/lm6bwiPZv8l3lqU1p8s6eCTFP+SryVNPO9ej5E8Uz5fU8iVmY5ykhHePhvC89f6Q6uiLTR/ld7edhPUXPk4CvyVcXT3g9wlowLtgdL/9gD13nbbi2nvv9IXt2aC5ifNi7corP/ug+n/y9KY0acR5m2rPaG7XhdjcvFJnsu/JHsrfmcB+39Zv2BeOihW/PR+0H22p+vgXHAH5U3uJ/1fxF52P5ZVd5wm+Wv6QvFZ54yqifTyh65t+u8sQhBmWWArbdq6PUw0pod/jEfT4B4to0Pgf0l2qIW+2NmIMWFW+wP072UGo3nO+aXKDMSWD8n4STzvsRPjH8LP67I540fN4Ub3fG/8IZVCR8e9H43JgFbK7Nuhb4fxJoA2l6q8Ca5AsGfFbjaYBOzAwlpTBm25X+QnYKO57pLJ3ddBqBgovivDGF4aa1rJonWDbbYOdre4jrw+F6cwQkDR3FnQ6O4o6GkcnR1LAFOqkkKQ0D72EolsvpiQ4TTjyXFb7vFIRlzA2nLGIIyjA8EGhXGgkh4FyUjGLtyLvPbcsMcltR+U5BWpQ79z/s6pSNZZg5XFlWuHs9HBFTeBDZc3SWeon5mBS0TCgFpD6GgwqWfB84OsG+ln3xL2T16nqMfd7FPiXqO9IxI+qSWsAxPQvHcnEtYRjozpYajx30rpGp8U3PkRhJcQ1HiXpV07CsTV7d3TBsZxbHsrR4XE8rol8rJNfe27dIm47Ku/UHom4okda52dBcd2LmeqLqmgb8PrA2am72yMyRwLOBt+RaxZR4ZzNP2NiM5YvBSekdDO4HNj8JsWOP3/xLBrdny54qgKG9g3FwzHcQXYcCGtcMVTH64B6Oha3gRljolUSN+kpozryAQnEp63leRKK3KVConBMpRRWQqYwXUzXkQPvQyaA3uf5aoyr5OxhNW+KXaDxzPdELScu3CaLo/ZIDGzPX08SVIyRefdFrBfdeZTQsOfKuFM8Es+Cjhgp1NKhib8xwpxRxg+c0Z5NHbKNg6Ev+lAo+oZnzwXJKDPoMnauPcpM/uZdnFivpxcers/JGgfD6izp6E75xJj24PSQef+3Olrg9Ex2snLOmPC/rh1NpoDC6AnzOEj3M/EqiPiZorxWO+apDoWFwnXPLbgyZmkCvF2dvwAahxBgcdjjC7TWs1ChjCIpoHMcqdZ5rcLOvnWnMpoG4B0xwTSkEg1s87S9X1rg2Lpo/DTuRmRY31lQwGzoW0JATttXcnFXCaJS1PpxzhWBA2ZVWA7Fn0nBaGcEkBZJzVpMMWmPjaxj0Rl7XH59eG8lw0tPrJOnSFH4GGzR7lIKxPSiaKpwLgtr/q097Jy+cx9N+Vf7ptZfKV0x+Xv7ptZrAqPkaDs8/nO9rvrbj/cqr+oH0iHvVnblWC445qw+fL0ks8+ukoF2mnJHWdq/hMsdzx5pnHjNwCHC+PyKMqVMqiSmFrCT1K8LfxE99XVsWiXETz2XqZL6Pg3hbtWuReGCzaRc6BWyb+i7xYL5PEYchNSo75vNsafs25EPmA3BRKJhRX12EQ2HHEDcfsctkAk+nRVenxMR/oTiFyG/iqmuWcTMlHm8oXyUpltXRjUex36Sg7dyO7ODsbgtw4prjYvyNCPz5zFMIUcYFVWuaigeaHFnJLNwEutruo4ImRzcizLWxG6fasW80H63LM3D+upF28XUssN/sOy5YmlhaFM4kY/22u1F2budeff0MMjLu620Scz5dgdDD5zv7yWhvfnwp4/MdP26TsY7ZuzYQ8tO40677pUbRlTyOq1ysh/zrar/00ufqPCmvXt3Xw3iUswfKGT/8dUqP8vbD67ubfvv46dP3r356+//6XU/2q+/fE5V//g8=);lineShape=1;" parent="1" vertex="1">
                    <mxGeometry x="-1021.0950740077791" y="-800.0326008974017" width="9.05815870382793" height="12.130818469154876" as="geometry"/>
                </mxCell>
                <mxCell id="109" value="" style="shape=stencil(lZzbkhw1EoafZm4VOh+uWXgPIjDrCYxNGMMub09qB1V3/ar+eudu3M7sUkl5+PPPVL+k737/+ONvH16i//3b1y+/fPjP60/fPr6kf73E+Pr544evr9/sr5f0/Uv67ucvXz/8++uXPz7/9Pbv336ckvOvX7/8Ob/hv296Jbkwplb0f7190lzs//vghzf5T6+f7+W960nkU30sn7uLReSbB/nqYjvJd+czyCfXusiXBPK2/vP3Dxdg/am5PkT+nw+u5bN+f/CukkLQDQ3BFdghe8FxfuMQXYqgYFsazgppfXKtkFytZ4XsAj0huNRVYYAVheGyvHRxnRSaK+djCNX1AgrFDXnp5gZsq604yROG82AZtuv9/IToXQLTs3P955gOheAq2LZZ2vkY7GA8PMAsXxaU0ZLM0/1ZvjoPpmr/K/LNVTgDs4Gz69sbkd3l5elLPnnXyDddOq8nRYxFcUWeQz65AfsZNRSl4gqcV1gGdsg3dJugbpa6q+QELp/lLZjR+4YVyQ/5iLEuuHC2n8xub/Ln87LgHcgBXBT57sJ73teSTyIXdu1sbyW6QmHLeZHPGFMO6zrkG/pLXKd5yA+XGtmzP0egyvEhuXxef02uw/umFWIP+bpO/IE/pvN51e4yyvdzfGsec33RrNHiiniP4o/IlyfxaghUsYgH8m2d/iE/0L+67mcPK609iOfjbD89rR24tmevmb6X5UKPUpJYdLc9AIszIBBEwUIQZ8l4fofh2efLMvlDwTYJDsHyej5H0WFxm57QllEeCmbotEt9e0LGPGNAQKDBsERAgcJrpBiVEZdBg6AKtKTp+2fbHm1l/2uFvFDonUKn5Fc1Go2+/O9awcBAUIVESxqKS00hU773iukGW6vhgVpUoVGEzArRTIF2yRBB3xW4npCgNzoiX8MEEjWeKBgoKNsu0TtMVJC3bQUXtZprXxIWXUWh8jQNqgKbVnVmrVRQZMPKXhUKRL4Sln/dKQRKVmmZ2p2LkvGVsvbkTiFAXDI0kbcwQ0GgbFWUKWQw7xounhAgkBmgKFuopIRSy4UC1cu1rRXfK8C21qGoZ0ZvqnK24tQUCMa3tFDpnQLihqzAwRQ8Lam6IsaXEOm1vmXRtIq3a2jit0BmsRBMoxu4lXewcoYUrpDAgF0yKCLlZh9YfhkUCed3sE8aBAFbgD/7Q2+YUMZWMdgiPbz0bdcPhYyRzwxBahjb6AEeN44S8w5UJthWCyryhMYMlcW5eN7WaV300k2jt9kveZwFdyn0JlAHJDDThywprUU+UmgC7Z/sUtc8bXGEovctjR8KDYurqXB2UauuiLkcW/lQM/JHFwqR+aNdwSMHtitYiqH8cKHQsKS5UGAofaFgOel9TwgY7qctnZNi5rJvoiPhYZjnmbD2bHyZiYbRlQnLT066KebLzEVa1BDWOTHAsrg0zrtk0LeST+dNwXyalpRWvrmj/9Ba48LyB7/Y+aQN/pxNY1LjdHBeGUaruwj+9KH1tFV2FDUso/nzO1ix2egJVUlGq3+pHOhFoXRgls4yWjsbX2C81JNC6cDR21KgLilimLEU2ITMD8gcGvyRLBo85jjLmZKyxoJo1/JbgdLxnC1jyvd3pK4MUmZJoRiTWlwI9Qj1vH6vXH5BkmXC9HN2y6sWv5bPGl8MEVPdENVxEhaIlpfkgCNGo1I1K0QEeiXrfnISKRv3H9CiLcXUs98ffclHBXHpIk+lYS4KkPzKco9IA22XIdOYvfZSwurzPpLPup+UDPIWeQO2Lkxe7CcsKvSRvG+yP1TtTPmi+8kkjPRSPLfK/NqOm/yTNrZwmH4FjEfyVeUJL882udonygfNYx6pcJOPuh5q1eStd2ovxN+f3uUvF/KEPaa82ieOKRzm+3/Gh436D5hSpz82lefvL+ovT/w9betn+4/b/rC9CdvsEWhd+SNynF57RzyVMf1X5Smf3uD2nf3z+ssmT/b2Xvmi2NgjI2X5per7UsU++VZdD9lzsfyu8ZbileXfLV7R+VrZGdWeqf4x/DDUXyj+16jNDcYbtWjvlFt9tSsey9gwMvwmeKBg/DF8KPm9YI+slVUj3PAkxVvDw15YKGx1t76+7oaHqYQ2QC/xsyP+tIpByXcuq+JW9HjsFFnRIw0HK0nwCXmL0JFfoWwKB+X6qDQUnm4OVVFZZSW/vHRjkngoarJqldK2FdDS4ps4mmiGoHnGHKdRTR/1oM2ykcjYBgbjE/ozaypOPNYwqvpCSswENk1OqawmxyOFsbE3TwglKTdugPNaYSMycsQEaApyDpn7OKYg55B5msYUJIRNno76/H4vcrmKu9JgtvFKgwnNKw3mTK80mJa90Kgeg82VBlOOVxpP+OuhjOBkyMlqtyRdeWZhDPWLOjCgmUIXmiUgLjEFyVuNiQpTkL7aLbU+clVhElpFamB2W2SCm7vxO1l8y66PAlqRmeyA6Hm2oUUhYQfVYqzAQ0uXhMdmN1PwQF3k7qNMpMNaTHj3rrbUOdxMZlbaxlzD96MpdigEBFmzdShdYPbR7tWWLPvRgEDbmiezk808qASBwQ1Rs34d+uEBAfMv6W/OmQWClkFL22dTEeNCgYK+RSFpV5oCDe7Womh9FASLNWk5Nhiv132cpWLBV7b0O0fUaNikbabxZP5lGxc3hUFPyFpzjIYHZ0WlFH03YHSt4LeZhY5Aaw4oN1WgJ+S6zVINHILLefOHsa46XCtsU8gTSTGVoYNLY+H+S4U5cSa1tGf2YA61bW9NsyCGb9uuQGNzWeu/Gxy8VojbqNNAPJq8MiYz19N09z6YN3DkbN632I6a5qlj2SYq+bLSbLKIB3XEDnGjNaZDkELYRmE7EkXRb421xvO/Y/PR+mycN21xhgZVw26tBcmWUC8myCIEJqu795Fkan/Ny0fyhIBId3ZYJfQxoTY7rGfzNoBDeTcERScGmIgiHtq+N3xDiKxrOWcYESkm7UhMEEqzi0qfNG7plm36vzGFq9VM4+H8rLdxJidHg7/a826eA5g6Wu18j1ABQK04Uhi32yCJDUjh8MQoeDtIiozbeOsDefEAQygUHL2SXYVb2F4rvXmbCM7La6FXjk8eyItDzquysP9eO2xPbltt5blBDQqLXqHOnAvH/ZH3nT0QlBeUPW+7obwQrIYyqGUfdP2pYHYNSomlxFcutEObeGgl6f4bwiB/TFpvPqG4y8VtTKJfqo59xoLMatPzsghG4+td/SvyxHHwOhU3XZoOLGx09UB0Y0lSp4A6s3lF0Xt4Qs1VvR1un0RS6NvoU0GF6QZC6mcMK2ZHEldsGygPTzOQJ0S+3bRN6wbOxCnosELwfFFxm34KTwsQmewbGEuz12sKnccntutWjWuuokwN/6pC7gq2KpZollpkcJ3HveavPOj3U91r8nL1ueIgvcnn7fthf8rmmZXHq5Je5Ko87pV0/Ikn1svWFKp4vlNex+0IC5VtRLJifTzlhQTG3L1fTmIsVJL6S8OCxuQF/DUmi977qyJP5e2P20+Y/Pz66dPbL6Dc/7/+5Il99PZzKen7vwE=);lineShape=1;" parent="1" vertex="1">
                    <mxGeometry x="-1001.5830798266381" y="-800.0267675536471" width="7.435040779555191" height="11.462158380857778" as="geometry"/>
                </mxCell>
                <mxCell id="110" value="Longest Increasing Subsequence" style="text;html=1;align=center;verticalAlign=middle;resizable=0;points=[];autosize=1;strokeColor=none;fillColor=none;" parent="1" vertex="1">
                    <mxGeometry x="-1090" y="-829.29" width="200" height="30" as="geometry"/>
                </mxCell>
                <mxCell id="112" value="" style="shape=stencil(rVjZbhsxDPwavxK6qOM5bf8jQJzGaBoHSXr9fam6XJv07gQF+mbvalYSORweu3zz+nD7vN+l8Pr2cvyy/3G4e3vY5Q+7lA5PD/uXw5v82uWPu3xzf3zZf345fnu6O/1/vp0r56+vx+/zCz9PuMg0ykSl8Ovvk0gx/Xny6QR4PDxdAjLVagGNageARCUbQMqUBwBESvZIWT5RASAQBwto1NEOgZIFlEzMEBDskcqg2iCgJANgxlaKVNgAalRDb5m1DQtoNCIAFKoW0OTSyNONknVc61TCNiAFfa2AnogLAHTK1qy9EQOz5k7B7jAWV64CxE29e0DP2wCuFKoHoDvURKHZOwg1AJeq3MF6uneKYAdxk6NGl0MCx4nVg3VcD/pkHdAoOmoI+QCX5IoxWvKJjoCIE0B39BaygEsLoFk/cIEBJEbsFlDkCaDGpJq9dElUEYCpOV2qxMhKmZIVgRzUleuAoH5dpJJVR9apwdQdIFIGd2iBhvXDVG9wB/Er2x2mjgAAi+McIFFCgOzzwxRPIAKlagQvIUoZWDVVipYZnSowaiqeGCJT4DySznz0UEMyma6CB+YScWmxCsMwf04KWA8UCsABst4lhgQFTF6zcxj0l9jHhbIoKohkuV7y6wO6b/XagtVuurO79QWtH94+URPjepIKVF3BA/mZl4JrkQmodLI+2POwpqCt87C1Z8X8GZqDz3wuyF/d12vyAMdj9fGFdFeuF11ZofXeFt+c/aUwApVUuipQm1Z7m/GSnf07Xp9tvBccL1GzypkPkP/JV7MRljiz/LZ8C/j8xec9XHNNevnvh/+4XvJ68+uRf6WkK/b8STdcT3mZhtUH8Rewv+TUbu3foJ605svk2fGgek4SjA1I6doaqiO6T9pnDq4ChljESRaO+cEa4gtHi6r2OqB50S0RZqXRfWlTmsbdOmBoz3dRMeKmLvhuQnoupCyyRXCZG0vRkNTkpJTxrbOWAovWRXjrWYk7QNXw2CJTv2qhBjCT0NU1/KMoWzZrTOu5aQZAJgk418qK81EFIhHtFHjgdlzawGLZd+H8dUTyoiRbNJSV2Ue1ACKSveHTuMQIrIvSlV0ZCnGs2pMtgKiW3popOH5Lk4R0o19V1hHOINhXCm0ZP60b1VdGdcBmXGLFfl+68wF4EXxmEGZFuN4JxiQWMGigaHlastb+G+t95pdgRmMmbUyW9VjnZXcbBvIFROpy1cuxTmzWI1kT8blSQ8eXHGOv21Qut9jm82xAEwGfxut7U0Qv7jqo2ZrYOXKyTiC2gsuRn/G8LvucXLXP3JrvZZfNYBsqroze+nAsy/q5izIfpIFY/ZxrwNiS9fFqDhCRA/55dP0+QH6cJ+X3h8fH06D98r2frMuj01Q+f/wN);lineShape=1;" parent="1" vertex="1">
                    <mxGeometry x="-1027.8759525568992" y="-804.8033890407207" width="1.8084815418321039" height="2.0695105928593525" as="geometry"/>
                </mxCell>
                <mxCell id="113" value="" style="shape=stencil(lVfLctswDPwaXTEEwec5Tf8jM3FqT10747ht8veFqqEiQtZmfJPlXYHALkBykIe3/dPrbvDu7Xo5/9z9PTxf94N8G7w/nPa7y+GqT4M8DvLwcr7sflzOv0/P0+/XpxE5Pv06/xm/8D7xaqUYRpZ3H9MboRT/v/g+4Y+H0wJfMgXu8CwU6jYhZ/LSETQCMyAwBUOoVNM2IQUS36dQyIMIMVHsCUGzAhFCoew6gn6igAjBUY0dIUVIkEiuJ+RA3m0TtCbc51A8ZaCDd1RyR6i5leEmgeeqz4RCAiJwsTmouTgAQiRZEVIBBE8sllAzcCvlu/CRIt+zIN9EXWYs23i1Bd9TUkeu990Xmjni2uMTJaQxBSNApAzynWfDAs/ApdpoxkKBEqhPpVIsPiAHCflVgIgIiSRYQkUVKlScTRlFUA1kpYFgQjVL0pEJljRGMFUqcKJqDrlaQkWEZCfquE0A3UYdgiVUYAwVuteN3ez1LSetAsCB2ny2wCMVuPlsUSK0D2qnGQ0yFdiZtpMT9N29eFZCP94Ltxpvacx9xnkW8bbtPIU+Zd14M/KpKtRPi6jTBUSQTK5fUlAjgnEdgiWIVgnMr8h2QOoWkdBRoVDodVCnZLCkpJtgH4FVB3Q+quT7KjHe0rT7zQGs7aK38XP4hnfQqEVa437iA2jMkmzru3YyuY3XYZQMHjV+ZTuLXBP9Nl7W30e21nFujmqOElpPtt9ncsByOnesISiBvqyrrvFN8I3GX40KD3vg3hP/13h9+LxevByOx+l2svzfXkf01XSVkcd/);lineShape=1;" parent="1" vertex="1">
                    <mxGeometry x="-1016.8478897961411" y="-804.1868234529522" width="0.5836381582403658" height="2.201408024042207" as="geometry"/>
                </mxCell>
                <mxCell id="114" value="" style="shape=stencil(lVjLbhsxDPwaXwlJ1POctv8RIE5jNI0DJ339fWdryLGo9dS+rdeclSgOh6Q2evf2dP+63QT39n7Yf9v+2j28P2300yaE3cvT9rB7x9NGP2/07nF/2H497H+8PBx/v94vlsvT9/3P5Qu/j7jspZQFFdyf4xsnrf178eVo/7x7ObfPUuJgnyX4y/bFiY72PkiLBBAkGECRWAggiqsDIARJgQCSqB8BVXKigBoGgEZpmQKKGwDRi2NbwvfSCMiSKwGoJB0AyUtlAC/RALJUJYGuEkYfFqoQp3MUP/oArniypdQkjoEDWQLZUsIK45ZwDJVwKVZJBsCdjkFcGwGtf2IVoEnSyKXqKTVAtWIA4C+hN8isY4LWLI5knM+iI1trFU9S2ruekB3QEAeSD/B5PKSmkkkYvIobw9CQ5MRn3/r3zgAsbqFYdmNLgfisedqS0oSLUVKyAKZjSa0sNdCXaEBGGNwEIGFAhlqnAWDSmsRPAEcA4LIPk9MkHVoRly2gkMC1uhIHpmMA1Gh9ULZCsxrQkjgOsHFI1Gnv3OQEZIaIAJaoBlD6m0sANQCULEIm/J0M+1qvq5cil5sFZLalqRFYAISubaqii1ckR5c4Ret0ZStEidkCHFsB+ZJtHFjJWgGg/WFxmLd06j6udRrKwwKXujKeJ/VtgdP+5lpqKGfrTD6uZCv0jr0tvTaBEmXreo7Sc51lAEWGkWkWmirKVGCWstbl81qxbL39uFaOkaNshVsBKxWi0VNaqUEI/m1VrtHuZKWONt5Wam/AzgHE6aUXmLYUSRzQJZr2fjlWAkA/YxOi0YriTzs+TU0fjF9HoJufIseyGjONSeradWHVfk449A7E59hpcNbnemJfe2Nx1kgH5nDsXfAJEGhJhAd2eoAmELHHKFzGIJRCe0RVmwzldMrrAPBsDBomINbbx2SnOMxYjHnJ2QqXC+1+MJSV8VgxCLJykiB7Y7phsGRFN4deYk+ja6GdBjZgVkh8TpwvNWKjnQZEyTT3OGi6pdrT9wRwfPxutg+AiDBhxQp55FJoXXXWAVNZRwoy8i1xHbnkE80HBM6Psy5GzcIGy2I1I3FJyjZDE+0zYG/IHaluw96NzFPaZSz2I/ECPVHY25soqtmwN5rne524dJ6mjLgu+pdS01l7NkXD3tQEiD47/2ZvDniNQilXa08nYm/11PUrpkv2t11+/tceDx83rY+75+fjRe35//ZmFq+Ot7r6+S8=);lineShape=1;" parent="1" vertex="1">
                    <mxGeometry x="-1006.8970201727983" y="-804.2065816364192" width="2.426644850781789" height="2.4060804906735145" as="geometry"/>
                </mxCell>
                <mxCell id="115" value="" style="shape=stencil(lVnLchw3DPyavaIIgs+z4/yHqyxHW1Ekl6wk9t+nJ1scD8GdVnJbrdAzINAAGtyLffj2+OnrwyWGb2+vL78//H39/PZ4sV8uMV6fHx9er2/4dLGPF/vw5eX14bfXlz+fP9/+/vpps9w+/fHy1/aE7zecBcm6oWL4cftGkxT795tfb4Cn6/MRkETDDAgSGKBKqBOgihL7BI/iZA+HMrFPkvNkH8cX9+276GwfpIdz+5wkmrMPndh3idXbk+eXJFa8P4XYdwmzvUmM5/bVxuuHfZHUiH0RnZ+PBJsSQJPSFgqRE7cgxXEOMSMutShhBuDMLVFAd4Amxt6AGPY5qHgEiSoALkrgeSJpg0uu0JJKZS6p2My7VCiREFabEw2q10oS10dhDUC2UdxngDQfOmfp5A1bpudaRnV0ngdHjRJH+d0HNOnzGUqWTM7QdXlDlUbquScJ8xlqoNToReKch8pbaq/SZ/JtJcXO0H3LALsScUlD8E2gFTF2anBj9qmHEYf7gDa60A6w4eV9QJY283sLHHuDDjbvgDZGxX1u5JHYHYCCYK0So2EGHAJ3H6FLmEBwkutiy6m7NOITKqyqBzCCJ9A5ewAbWBi4qj6uhWQOrdGSB7AoxewrApSPpH9r830D3MhkBin477iBNsDeINV5ZDRv6ocu7Ct5/iJiYJ9IiIIfJz2OxnZi7+oZ9on4Hxb/lXa9sKRY3/G/qbcPLGGjXx3aSyXnjV51wp5xNI7Zenw+yZeNbniwZ4MKZdz8eVm3g2pe7JmCgehc+GBk0uL50dszVWtLfHi3tsUfG33pJP6+gI0OTR3Vd7Qn/ugdf1gbDUufNsm0XtbnKznvvgMd4s9GePCiAvaB5Df4JQT8ySQ+OO9Sv2zr0qVDBxpPsLd6+0L8j8Pboz3pP9Evde/YK+i7BJROjGXWb4xgHSgvFEpDoZ+NyepylumYxCC27AEsyan51XoTVeQMOS/aoFDaQa54zVUojyCIclpcYutmW/RNpvtpS2MQHfJAl5Dm96ItcUxer/oGp2Ji2UavPajrTrr7TzGwA4wq0607zOTDahXJofsywLHXs2Vwi9JMjWp8iy9eciH3SqKEHSUumxe72YEct2W3YyJtO6IDcFWHxcwlrijd4uuS6YwdhNHbfMWhBgvJdE2erTlS5VWzv89CW2DSDlGK8+xPmdd0lbRcXbACQk2H2SWrVF0A4OSR2fjmzCWnN2Pni9pekDsgjUechdU1sk3Ts7Cav03RQpdylIsrUWwxrAmUNkbs3pfojoNqcSKv0pvaEodE3qk3PPyPN52JjlwwPzqmSmI3qajF5OxZV8Xmm+cmyS8UUvJLV+WaXH2lYXVnGntvDXuClS8VmHwLhdhWBIArNK20biwN1XsAsDsU22X7AUBdMp9kABq/Tch1AbA36D2XCO8AsAXAurzt2vcYVpbpcCdx9Aol+Nsy3a/dzwD+Vj4PiX/6hgXANpj//0vQ+wB8+PnD05fr09Ptd6vj//0PVfjq9iOXffwH);lineShape=1;" parent="1" vertex="1">
                    <mxGeometry x="-999.0836625818417" y="-804.946483140392" width="2.890156137306034" height="3.7307177982906627" as="geometry"/>
                </mxCell>
                <mxCell id="125" value="" style="group" parent="1" vertex="1" connectable="0">
                    <mxGeometry x="-1083.98" y="-770" width="110" height="127.98872892719433" as="geometry"/>
                </mxCell>
                <mxCell id="111" value="f(i=3 , pichla=-1 )" style="text;html=1;align=center;verticalAlign=middle;resizable=0;points=[];autosize=1;strokeColor=none;fillColor=none;" parent="125" vertex="1">
                    <mxGeometry width="110" height="30" as="geometry"/>
                </mxCell>
                <mxCell id="116" value="" style="shape=stencil(lVjbUlsxDPyavGpsyddnSv+DGULJlBIm0NvfV2nGzrF8zrZ5C8nK6LKS1t7J3fvzw9t+x+7943T8uv95ePx43smnHfPh9Xl/Onzop53c7+Tu6Xjafzkdv78+Xv5+ezgjz5++HX+cT/h1sauVqj9bsft9+cZRLn+/+HzBvxxel/hCKQx4phAAPlGNAz5Q9gAfKY7+JEoC8ELJDfhKHp3viUf/PZOv2walkNTRIFKJwCCSS2OGHDlk4ElkNAhU3LZBzsRjzBp0zcCAKY9BS6QAspqKjSF4coAWSYjHGIIWHvAiFht0VCcTMBAKY9B6RASVDvozj0wK5EDQQSgbg0rM2wZSyY1pzQFmSQLFMehcKADyiSOfB4Oi7QaC5tiy3g2UrSCt7KmU0aBQAVzyxQatLSUgBh8ojP9BexYVzntLbx0KDFxSKhmPUhtS61RqGen43Cq/XgUK4wjTIZgBkTwFc35tdV/FO2Jv8RVkVEkx+uOdThgwMNTATf8AkKLPqwW+QIccW3zG+MmfBAq8ho9goq75g5aUs9NO8QLP91PBGPS94qfzGeafJ/9RA7j269J/QGjXfl3mB/LHNpjmH+Mn/iTsz3R+hvWa/Ucr2bXqLPmPG1ImPG7IMf//0ZBzx0MCzQStYIS6tuiWCYIFmBsMqbTVhsQNP8UbcLwTgQQPiDrhcf6n83FD3ob3VqvoxkCKTkiKxSP+xDZeFxsPEbQ0bxcbtQI+6Aq2BA1w4uqStxEwXAE+W6FSHSVACc1pNlKotLbbkkJljEGlEDKQqWtUmUNdMAWtyhy1mRQrtrJAOaeSNI6FU2UeAfFU9Iox6NzaktVm1sUMZ6mqbrPMVLijG5c6YJpZrwYMqJFyExvdwMH1rdcbkyWtDLrEapmMQGC8MJUIZgDoFc2DOpRgK+0rrLSS2YhevWYyGAGquk1atWkjuol3qnV6N127dROXER/hJVNHULY3fYf8Ke0K2gNoB6zjVUOMtOhbcQtvLr1dFm7ii8WjAuhKlRvx0/noZaO2Eb3Ao5eZrumveI/zWa0/DOq10DRXA7nVAL4VdZV1xUNG91ePKx6+FVW7cxx+i7r1beyfeP1wfYh7Ory8XN7xlr/bhzv96vLoJ/d/AA==);lineShape=1;" parent="125" vertex="1">
                    <mxGeometry x="10.389193732231888" y="26.902744132303724" width="28.965736569416784" height="13.767802135456641" as="geometry"/>
                </mxCell>
                <mxCell id="117" value="" style="shape=stencil(lVjbUhsxDP2avGp8l/VM6X8wQyiZUsKE0MvfV27qZS1vDsPbZlcnsq4+0i7evD7evex3wb2eT8fv+1+H+/PjLn7ZhXB4ftyfDmd92sXbXbx5OJ72307Ht+f7y++XuybZnn4cf7Z/+H3BhUouN1Rwf/6/ocD/Xny9yD8dntfymUoY5DOlDOQTRTfIVwoOyAcSHuR9oJQgIJURkKiiE3mSOgKYcoSA6kcXOfLIBt9PvAAi+QABzmgoFJDRzno1CGVwJC8UxrDFQCwAwMRxBBRotM9UjQah5AEgUhrjkALlAgDqpVFDypTrdUDtFi7ytXthU75QGTMpO2JgQSY/pmoOMPNS/7dFXqMMDGabqFmDjGKmDhoNLp4yMFhjZrKiRGJU/Y6C0VAoAhe1PDYAgWnU0nLMOw7dzdsAoWgAmSKonVTIGUDtOrfDHGzcauj1ug3QYhs1VNwki554bMK1wsxmb7u2+K5zG6DFawCRMvBSdSRjh5HcQ7kNyDYOovUEjFYTZUwNYQrAaP3MEyACDVJ7A1oDQMGJkHMWgNqqAtJ0JMYa6ng16CHR1eCdm85UYeRUhRQLEFBBCuCxC+ibiAFxAhSQG3oArhYgoIKaUwwLePfDteTIeVKBkqNM6Sc4dKW7fQVIGBCKBTiU4FqkU+TKBxrYAlAbaDYYDQyvLP1s7tzmaHQk7lfUuuaQ0XriuUhRfldLxxSAGGJL12wB0K2aCMkCBOW3WNLaWg8iS5tVXVHkxNIrfYMoYktOtgDEHt67xAoAc6P2wK5LDmv4HECvCOsl6ePHNiBuBAJ1JhZL1TXUHhjNqTOq9b0ImqXyHWt06A16GxCnGnVQQ+berRf2gG1QWiuG0EQ4DKRk2YPSA3QHRbZDGTPM1uiojpFWRyPaN8+VyomQBl97712YKOZYOneWMTWU63qUrTZZNZIo0Ml2e2XriDB5G2blmQ64aGoxOm6gPumsg3LsZOXKecz1ln1vOdsxtpw16SgAApB7PBf5AocTnubJBFcNYu+R5CH/1PHKlE2skH/qhFsMIOMcTZOGACu5Dd0j6VarHJqhNQXG9qVuRuRQAWz2QzrkIgDbMHtt8ojhsh0R9Y0HV6F+Nr1C/RYRoPbpawF4ONj7aaYUqKCNxaNX1Sa8guKxlBPeD0XLVbVdgijr3wUrj9q1yhcrj2a9efPhyKMtQCZ2Rh4N0G1rkK08WrgVO184SLRbeOz5Ybx49g8aC+erwPVec03ecGDf74ar8maFiTeY1S4kPBy/Pr0U/lBeH9430A+Hp6fLAnv93W6s9dVl2x1v/wI=);lineShape=1;" parent="125" vertex="1">
                    <mxGeometry x="10.973396724176155" y="38.1061381197253" width="3.5047843044464035" height="5.061194482885605" as="geometry"/>
                </mxCell>
                <mxCell id="118" value="" style="shape=stencil(lVnZThxBDPyafbX6Pp5J8h9IIWEVAoiQ6+9To1UPa/dMTXiDXVe7XT7a9p7izY/72+e7U3A/Xl+evt39Pn9+vT/FD6cQzo/3dy/nV/x1ih9P8ebL08vd15enn4+fL/8/3y6Sy1/fn34tJ/y54JykvICC+zs+8JcPPl3EH86PV+JeYlDiXjoRD1L06UlC3BeP0vTpRVzdF88SmxJvkvy+eJ3u7sWnffkuxWt53L4QboKEpAF12L8NyBL0jUBnIAZ7GFg0IEnvhH+4J2pAk+YIIEvWgBgkMw/3wckKKJSlGMXpmIhdOnEbzjNRkaKksA9IiGkdFwlHEA04r2tARhYQlhJCqWpApIGN87LRUMQTG3Be1ixlOI7lAljvOnf8uOQ2oA1OVkCUQgA4z5vszMMz2wBwom0olQYfzvM6gUof4bgNKFK10dWP6NoGtOGmFRAkMQ3dZlwFSyTjKjytaa1pXHIb4Ecwr4AsldiAG3tjdJFC/ABA036olYYGTEw6vGsTT1iCiW4CdKYhDRJXQJfGWMqWpeY4oEjUfmiB5jQ4sRricOU2AAmko7Uhfknla1MRaGUUnm0ASq8OvsaLQEs2H7qTShzXqgSnAdBJYql1+6L3NF697Uc02HLfEd4MkMYTuAKqOOK4XmzG9SaOhAa+TtECGvFD7/YFwieR0NrXYL4GEMfh654tIDGWun2yOi+V3rnB4hWiHKiYjGCFaQEUC2gHAG8B/YDXiSaWQcuNNU1XPOwi5jtxFTYjDo0okyMOaMp1cgQpNAtgcgRrRDc1ZB4bZWIpcQ1lutJBRtQ4AQ5iY6L1CDAZHQ/CdboSGzgWwEwrCb6dJH03oh5caqocrI3bNJs17JvEsm5gdt3/ZOl8J1bz3w1otn84SoliZwIcwd5ePHSmn8ZDVxjAj1dqBRSaQ21qXqGTVZpWp2CKtPFDw2ELh6dJh5bGDOGNFw40TRZQ6UCKtsxcCW1ZZe1xHSaugESHCLSWbmot2UuK5tVrWpunUwfa46jfFNDARl507FX3ouinWR8HgDdzDaKVtcfB0gre2DOHuaYHC2DtMQDeaFh7+L1Ry8yXIDoSP2CYC+ZKaRyxDai2BQJvrC5hIDUvL6xiOV2SbYFglSdGY6h22gbMtKwIFGd7UVwyERtys2NK4Sxl5IM2uvCtYI6jRqzLDd7tZmfzATpZtKZqNwnQebACqkaDo9uQNAXfshQiD0pEaGg/LGsnBgh2QfO22NpbxZnQWFZnJPhClqA9HSMNvuAHJ+s6kbdMvtn58m3BuA1APmjHQSfbGXlvJyfo9KzZsO86VFa2qrDFHhpZL51tMjS+3ZRksnNUkJ2FutnyJdrsuYlNGqPOzuputPl74sGIM99OnaqjSb8hzkLNWT85uoaGeDLinuQWxJsVp8x4ywzrKFbdV+L09GDvzh4l8GaJ5KfHYsWpm5LlnS1f3vl706E4/nj7aevL+eHh8svY9ff2pzB8dPkZLX78Bw==);lineShape=1;" parent="125" vertex="1">
                    <mxGeometry x="57.08029875680063" y="26.666300402283014" width="23.144464279434313" height="15.182304083307477" as="geometry"/>
                </mxCell>
                <mxCell id="119" value="" style="shape=stencil(lVjJUhtBDP0aX1WSutXLmZD/oAoTXCFAAdn+Ppq42kxr7EdxG4/fm9a+9C5dvd7fPO93yq9vL0/f978Pt2/3u/Rlp3p4vN+/HN78aZeud+nq7ull/+3l6efj7fH3882CXJ5+PP1avvDnyCuVUl5Yyn+Pb5iq/X/x9Yh/ODyu8Z3YJryRAXwVSjLhhakUQEikfSZkMgYEoz5rIJ20AYL/nSaCZqpApKbUy0RITKkCQqHOM8HGm7OEfjL6IGQhBjr0TGkWKRsVBYRKMps19+GZ84Sto5UEiCTMxLPWlikDM/kRqc2EQpYBoVANJzTo6u4iz2ayTgU4wj3Hs5mKOwKIVBuVOhMScQIEJpl1KEYVnLAIoDOhUQeuNhlGHISq0A9ZSWdX1zLOPEtIieqstOdUBmbVMlQcBM+pDKJPJYrUDCaEeHwHQqUMCpNXlRxE6rCSycmIg9AF6iDuuLn09USCcjTq7FnekZFGPp7wnRrws1CViO8d4VU3eOADHlV0LQ9IBY7p73gDdZiH9VZ4BVG3qUe9UQX68sj0FR6VeSYN+Eod4q1GPGqFspH/g5Cm3CIeyS+xrS3fB/7SkeNr+UE8a2xqi30gvteN/UH8nwrt2r9Q/jAoePwIsKdS6RFvUP6UIr6B+JSRrev8gv4K+bJquRcCrm8THuKNIx4FKMeZYunoMOFDJ3OHdYyXiDcQEBy7veMF6ps3CYyGX6a2wWN5PoevmwKUYIC2UV5XHcngiEZlJjRcob3nhQhqDUac2MjwVd9uKMc2PmsJjxIWq0rjMYKdrxJKbRap1mGG8+OQxDyumRS4zXiUwROBYWEsrvR8gq9haODyrUtnK/mUiVYWVzFsIH5mR6FklMK430b0nh9WNtOB1bG5XRreQ/k1GwXtImGuj+bpgETa6oD3NF8PLKxdZcxI563kNglblMKRbpla5wRKBc50TWJTSzI29EuejtusfbRgBx2WHEQnSCzznuUJR2sIbx+FUU6XEifHAlfNksccejoAfz/HqiRQ4wUfL0Uaksei0zz/0fctTu4MNwnHpx7wCiqY44sFPIPUdHyP8sNyVGLM4TnE8aYRjy6Zypib3vGoDy7VM8qDBkfHa5QH9eVPX5J9iPeH9xu5u8PDw/FCb/1/vMHzV8fbv3T9Dw==);lineShape=1;" parent="125" vertex="1">
                    <mxGeometry x="77.08220963615679" y="39.545120493638024" width="4.679498425681604" height="5.393608433556344" as="geometry"/>
                </mxCell>
                <mxCell id="120" value="" style="shape=stencil(lVjLbhsxDPwaXwlJlETpnKb/ESBObdSNA8fp4+/LrSF3yfWOkdt6l2OJ5HBEasMP77unt+0mhffz6fh9+2v/fN5t+Msmpf3rbnvan/Vpw48bfng5nrbfTseP1+fL77enyXJ6+nH8Of3D7wuOqecJlMKfy4tIWf69+HoxP+xfjXlr1jxSBPaZYjX2KVDNyL4Fay8U6rp9oZ6MPWcqvG4vlIqxz4kCsG/U7f5zp9TW7adwWAeKbrEDAJNYQI0jBrcBlYp1uWqICgB0ymwAEqmmdUBKlG2QpFCOAFCoWB+kDVrdBjQqYgAtEYM0s7LSOt0KjJLSIHQL0C2BRHP1zO4aJeB0DsTRApgKyENmz9WeYZSykFgfehmbvF0MyZOvV8juok4Xv0IB1KhpsH/mA6o35WbvPkoRhFX0c/Z5SIAaIp58TUsUUKNFn4emYQB5aNcgXgGZGGRag1it01IpAxHQNLmwKiACH7qWvCWflmgDOqwAJ6wTACSua4lWD+iAfF2jnrwPDDKtAKd8ChDkQ/dirLln5EMfO54BOqD3tCUnlQ0nTp0WD+iArRrW6qLUiXGmW/UAdEJP1GgLAKC3ko+zByQU1kKSvdMN1wMnD7hTQE4ENHGCyFcoRQ+IKHGqc26FShVtSUVAPCAheiuZlwWEwipDSeclitja/Ak0rYArzquGygyuaS8CFR6KU8WFRR4A+WIIFBYIwUXdFuy7ozN5SVesAp8D6IHjSq4J5IaeH+KOIPUKATRK7lTUkxjwW5ng1FgPaqRktY/EznqHApSsXrudK6BRAqku4snUr53pbUAksSvM2HK7Y6q+69MlUKubo291OyYTixcaDVMGusE8mvNZA4SkjMMYqK6AAAtCZ5pqV1D2ZbCCtuvBJkL5iIYsHQiia4ACFRAlHTniogFC/Nahxs1lkoZ8ro1N7uCtbZTIitAQO0CCk6hG1doXLH06Ii0mRUHEILFE0kmUQYGm0erMJl3UteogaiM6zb6gbwhe9PSNAH+DJ9Gdm4CFzuOLhuXfw7EhjI5lmAdYZMHPDAGKY/BjUhh0XQm942YYsrRiLn7vSOSSV6B75vUzm2GvoNhV9vqJA7kgPU7T8rYJkuDTd1l3zPXh/7XZy/5wuNy6zb/7azZ9dbmi48e/);lineShape=1;" parent="125" vertex="1">
                    <mxGeometry x="19.743489321287825" y="28.320831479214576" width="2.946527346118297" height="3.923684361236085" as="geometry"/>
                </mxCell>
                <mxCell id="121" value="" style="shape=stencil(lVfZbttADPwavRLc5Z7PafofAeLUQl07cNzr70tVWNlcWWPkTVFmxGt4eJCnj/3L+27w/HE5n77vfo+vl/0gXwbvx+N+dx4v+jTI8yBPb6fz7tv59PP4Ov/9/jIhp6cfp1/TF/7MPEeSJpLnv/OLkoj5/5uvM/4wHm/xTNEbQvaU4jZBLUQ2hOSJ0zZBmFwxhBgo1W1CYKrREEIkDyxEoWBdkkAFWEiJYjYErwS/TSienHXJqc28TaiZvDMEhiEovvZ4VLZaKHGHDyCAWnt/HPa/UrIZEmKgCsXXYGtGtWB8tbIjxvhi/a/kHMQHsfEyFVSAQsUG7LTmmNBn1GMLmeKaAFRaE5XQEzwqQiLfxeCIUZZi8/iaVY88ipQsXmWOqhZboy+tTw5/v1ORkEeqTiT2+661xRa+U512DfIn913AOJ+FpMd7rFL2nf9olCo+2vz4R11c7OgNJMAfx8vUWYY7yYM2tvhCAY+JaB3SthQ8t3gl6YxKpg6smibjSfo5QpGm4aUIiRyIIa1UJLnt0Pv7TPejnRQhtzf3N6bOBTvtYml5u7+TXSvTUudMGVhQoXU7OUfYmm65IhZlxLal77vUK2NaWcCAtE68waMV7tt+vCoPr1hHRXoDGWjb9cN30i5QKjcdL/gCVyz3R45OM3RG6dnV+a/DF8S7av0q7ZbcwncFcK2EW/7Y/BQtGI63E1CBy4n7XaaXLzpBPn0pP8Trw/UsfxsPh/mqv/1/f8brq/kngDz/Aw==);lineShape=1;" parent="125" vertex="1">
                    <mxGeometry x="19.03378662877003" y="29.291552268272426" width="2.3839374479419533" height="0.8001902056565973" as="geometry"/>
                </mxCell>
                <mxCell id="122" value="" style="shape=stencil(7VnJUhwxDP2auapky/JyJsl/UAWEqRBIEbL9fdSZctOWex5wy4Hb0Oi1ZUlPWx/k4vvt5bfrQ+TvT48PX65/Ha+ebg/y4RDj8f72+vH4ZL8O8vEgFzcPj9efHx9+3F+d/v52uUguv74+/Fze8PuEy8S6gCL/OT1gKuXfg08n8bvj/Ua8EbdBXKjwefHApGmQb1QykA8UeJAPiRQdEKiM+tsFRAEgEocRUEgqBDiVJFF9ARAHQIqUIrxDLiOgUWrYqiNAlQR6LYxe00YtnJevlEYbZelWOyNfZJRPJILkdZLPwEKVQvbyyAWFsnu/difuymdqxctHYM9McXo/sr9SSl4+AXuaNSZ59H6hxpP+gGZCcXo/sk+kEif7A31ip+DWv+C+cce/AuJhT55BvK3arvIBpq1MedTf+CJAvvn3q6VVxPjJwRpJ0YXZR5ClCHRjo0AYQzQpVeACEQoj55OQJABonSIrIPQ0sO8EJXUnWK0BLDabVPaADMJ6yWrRq6QAkM1N7C/NILBLIAnerAmUm6LEznEVhnYpVEfHaYDcKa2nwhVg4Q6qRw2ePVphBTQAjyfkCGts5V7vVkCGALuDjicUq+LgDqX2LmUFJIqoIhRq46XtFQGZtfQM2gFmBkUqFd9JVfMDIJABkjuh9nA8ZyV3QmPYJ5jGabRSi7hPyJ5AyxPA6TZV5maJB1y6tf7vDQDdwQClekADJwRmT2rTMmGd/BEVHrFziQbDdTGTegDKlYvZgwc0wKBmyXU8YWOHfYQRJvojUN5olhqzB2R0CSvT1QMisuvUCLeKpxEDTK5GjY8BXKdn0YRqkN3BtbYGEHSCUI0ewNhzrvCa86EfMqX6JkDxyfIllSpVfdOlWy9RrzWrRfNEOdRxL4DJ0zA0VkZugw9fWifKwfAuvT96LYGyHz1fwdE8UQ5mprcClrro7Kp9ONsHJD8bWsQnVHlnyoXeE+0D2AfTUhdR5WXvaqu8BbUb7Hssq5Sw3bA84/oTXITKWmc3/UlAbV/0hDAlUbgW6T3bpsd6AeCH7gjbPgO4Kdf6RDRCmJVc2lCFrWu2Iuj2EhH2WLn4wmtjUEYAi1Y3BhXYC2T2fLAGPwOzPg9umxEigxPSVEbtSQN3kDXUNiohAkmkyP7SqO7avOs2VmrBB1SycdT1iSqdIftNWabiBt6Muzjpfl2jlSGB3ldQ7yuo/3kFFfuaYJN90QQgPp61QYapzyqWeyN4/0T5ZeeMEuOU5vBSO/vEK6lHyLl4HvU3BqH3a2+1Nnt/tIjRvtdZey/M99QT4Nq1dIKeca9bwqTeTe6KWy5z2sA91TTRBpieeeoz4faefbngnqzPiGt24vBjhTc8w0VN8Hmf+yLzHK287oiF4udw3H9PSY1h4U1+GmW4CzGCBieOlsxKxYujlfEbP+y9KG4/nr8h3hzv7k6fILf/998c7dHpe6V8/As=);lineShape=1;" parent="125" vertex="1">
                    <mxGeometry x="70.19452727822693" y="27.96495829848118" width="1.888911066431226" height="5.078426449197067" as="geometry"/>
                </mxCell>
                <mxCell id="123" value="" style="shape=stencil(lVhJchsxDHyNriiS4Iaz4/zDVZZjVRTJJTvb74OJQpkENa34Nhqxh1gaDZAbvnt9fnjZboJ7fTsdv25/7h7fnjf8aRPC7vC8Pe3e9GnD9xu+ezqetl9Ox++Hx/Pvl4dl5fL07fhj+cKvM06EXF1Qwf0+vwkU8t8Xn8/r97tDt74mCuP6QgLWF0/Cw3qfyLl1QGZycTTIUYzrgBSo+hFQyPM6IAbrMkeSsA7gQF4GgH5C6jogMJUwAJKjAqLkM8nodKrkPAB4C8gRRqlSMWlz5FEaSMaglkgVeJCppnF9hbyolEZ7aiAGOVCH45iDqklLAJCIR+LVAndQmnEeAUIMQqQ+xzIAxJMDxOOJFhKoYKaGMaoSGxWv14InHmkhiTxganYtqx2gAqe1nqMBZGLAVHUxswUkYJK66MQCMgJopicAosZisQGUlvs1gFQLqAUAVIHG8pFKEZBPdyjJAlD9qNNi8iAUAZc0rP/y2gEKCitT9BYgyGnfVLQHALaKozSZVIEPWpBBLCABttZL1DuAQ7JUpkyrUiGTLjrdUQP1BgWkYAERmSRN2DuAQ1xylKd6KAgQWr/sSxQljikHC8iYfDasl4axVg9WBAoFJDO5MacDZOSDlqjxoVIAHXQRgQlQ0A6ZgukP0oantZoOE1uh8jHVqR7QJKOZNvXgnYPj2McROlhYdVWhAYAkLe59nAA5Ym1R6YsUlBDXaYfSxO16a5+LNMES0uEhGf3mpujXxxOmZHTDtz2vh5XKSCYVEtSCJmrUBBuKt6OGDmTIgQsJ+oEPhNTZ+U0HSuTvxLustQC+nywn9CBRQHy8swFNWGG86slIoqjdCgiGzof22OBhClgBo0k6MaJhLE5ziYZBUKmpi+Y0JvCslCcNW4iLaCrWpIx1W1vJyCMlCmoM0RrkmktrmuqSWe+wBou1B+pjbj3gP9dPLLphzzTB3PB3Os/fiKfYg5jDs4LY+OAzT9ct3gGMDTLC5XEPnBzweOj84IXH7fX68H678rTb78+XM/3/9jZGX51vcvj+Dw==);lineShape=1;" parent="125" vertex="1">
                    <mxGeometry x="73.68764584129656" y="29.147899707522924" width="1.586106336734165" height="4.263164557324275" as="geometry"/>
                </mxCell>
                <mxCell id="124" value="" style="shape=stencil(lVbZbuMwDPwavxISqfO5x38UaLoxNk2KNN3j75deQ6lFx1P0zVE4Eo8hh4Pcve+f3nYDu/fL+fRz93t8vuwHuR+Yx+N+dx4v+jXIwyB3L6fz7sf59HF8nn+/PU2W09fr6dd0w58ZFyiECcTu73zgiPP/g8fZ/DAeF+ZeKNbOPpLnbXtOlLmz95k8eEAS+d4hvSKlbUDIFiCZct0GxEK1dylUSm4bkJlK6gApUArbgFoo9i9U1664Dagt6VeApwKypIBceoAQe1A358i5HhEoR/hE9T0gkQgE2Khz83IrTcVEraVBLhVy0gNqo9dtQCbXp2mRh9sIpd/6CVSJuCpdJYeCCI1sizRVFEQgX2whAiC4AlzPVz354gWOlk2CglbqmCwxTmukYFxyuNTKtWABgnoukzgLYETXQrx6IaEsaV0NwOM61DYlFlnKKAZtuVXhYAwKMNSIVMAYmFwyAM0bDtqbpi5wWOrfsmqgiFzKFJwFVDQsk5WsCYDJF1cAyKXvApKG2A8B1QwUQ4xt9l5lVOkIZmUQKr3uBpVFQD5h+4IoNUAMrMreAybtRpLi24y4DtcIe5pth3oHyeptUj3uaJ0opmokIEOOQh9vgZ3grDBctWXD3MitVhwQQs37WHUvg6FK35VCHt6e+7nCTUg3Em9mrycP+oub3n2ukMh33abEmCO9FDtEsYB/c5/90lw/Plfnl/FwmDfv5f921dajeU2Xh38=);lineShape=1;" parent="125" vertex="1">
                    <mxGeometry x="73.61934930268967" y="30.090565070001958" width="1.7901194551570183" height="1.0873637238288119" as="geometry"/>
                </mxCell>
                <mxCell id="126" value="" style="group" parent="125" vertex="1" connectable="0">
                    <mxGeometry x="-56.01999999999998" y="38.110000000000014" width="110" height="89.87872892719432" as="geometry"/>
                </mxCell>
                <mxCell id="127" value="f(i=2 , pichla=3 )" style="text;html=1;align=center;verticalAlign=middle;resizable=0;points=[];autosize=1;strokeColor=none;fillColor=none;" parent="126" vertex="1">
                    <mxGeometry width="110" height="30" as="geometry"/>
                </mxCell>
                <mxCell id="128" value="" style="shape=stencil(lVjbUlsxDPyavGpsyddnSv+DGULJlBIm0NvfV2nGzrF8zrZ5C8nK6LKS1t7J3fvzw9t+x+7943T8uv95ePx43smnHfPh9Xl/Onzop53c7+Tu6Xjafzkdv78+Xv5+ezgjz5++HX+cT/h1sauVqj9bsft9+cZRLn+/+HzBvxxel/hCKQx4phAAPlGNAz5Q9gAfKY7+JEoC8ELJDfhKHp3viUf/PZOv2walkNTRIFKJwCCSS2OGHDlk4ElkNAhU3LZBzsRjzBp0zcCAKY9BS6QAspqKjSF4coAWSYjHGIIWHvAiFht0VCcTMBAKY9B6RASVDvozj0wK5EDQQSgbg0rM2wZSyY1pzQFmSQLFMehcKADyiSOfB4Oi7QaC5tiy3g2UrSCt7KmU0aBQAVzyxQatLSUgBh8ojP9BexYVzntLbx0KDFxSKhmPUhtS61RqGen43Cq/XgUK4wjTIZgBkTwFc35tdV/FO2Jv8RVkVEkx+uOdThgwMNTATf8AkKLPqwW+QIccW3zG+MmfBAq8ho9goq75g5aUs9NO8QLP91PBGPS94qfzGeafJ/9RA7j269J/QGjXfl3mB/LHNpjmH+Mn/iTsz3R+hvWa/Ucr2bXqLPmPG1ImPG7IMf//0ZBzx0MCzQStYIS6tuiWCYIFmBsMqbTVhsQNP8UbcLwTgQQPiDrhcf6n83FD3ob3VqvoxkCKTkiKxSP+xDZeFxsPEbQ0bxcbtQI+6Aq2BA1w4uqStxEwXAE+W6FSHSVACc1pNlKotLbbkkJljEGlEDKQqWtUmUNdMAWtyhy1mRQrtrJAOaeSNI6FU2UeAfFU9Iox6NzaktVm1sUMZ6mqbrPMVLijG5c6YJpZrwYMqJFyExvdwMH1rdcbkyWtDLrEapmMQGC8MJUIZgDoFc2DOpRgK+0rrLSS2YhevWYyGAGquk1atWkjuol3qnV6N127dROXER/hJVNHULY3fYf8Ke0K2gNoB6zjVUOMtOhbcQtvLr1dFm7ii8WjAuhKlRvx0/noZaO2Eb3Ao5eZrumveI/zWa0/DOq10DRXA7nVAL4VdZV1xUNG91ePKx6+FVW7cxx+i7r1beyfeP1wfYh7Ory8XN7xlr/bhzv96vLoJ/d/AA==);lineShape=1;" parent="126" vertex="1">
                    <mxGeometry x="10.389193732231888" y="26.902744132303724" width="28.965736569416784" height="13.767802135456641" as="geometry"/>
                </mxCell>
                <mxCell id="129" value="" style="shape=stencil(lVjbUhsxDP2avGp8l/VM6X8wQyiZUsKE0MvfV27qZS1vDsPbZlcnsq4+0i7evD7evex3wb2eT8fv+1+H+/PjLn7ZhXB4ftyfDmd92sXbXbx5OJ72307Ht+f7y++XuybZnn4cf7Z/+H3BhUouN1Rwf/6/ocD/Xny9yD8dntfymUoY5DOlDOQTRTfIVwoOyAcSHuR9oJQgIJURkKiiE3mSOgKYcoSA6kcXOfLIBt9PvAAi+QABzmgoFJDRzno1CGVwJC8UxrDFQCwAwMRxBBRotM9UjQah5AEgUhrjkALlAgDqpVFDypTrdUDtFi7ytXthU75QGTMpO2JgQSY/pmoOMPNS/7dFXqMMDGabqFmDjGKmDhoNLp4yMFhjZrKiRGJU/Y6C0VAoAhe1PDYAgWnU0nLMOw7dzdsAoWgAmSKonVTIGUDtOrfDHGzcauj1ug3QYhs1VNwki554bMK1wsxmb7u2+K5zG6DFawCRMvBSdSRjh5HcQ7kNyDYOovUEjFYTZUwNYQrAaP3MEyACDVJ7A1oDQMGJkHMWgNqqAtJ0JMYa6ng16CHR1eCdm85UYeRUhRQLEFBBCuCxC+ibiAFxAhSQG3oArhYgoIKaUwwLePfDteTIeVKBkqNM6Sc4dKW7fQVIGBCKBTiU4FqkU+TKBxrYAlAbaDYYDQyvLP1s7tzmaHQk7lfUuuaQ0XriuUhRfldLxxSAGGJL12wB0K2aCMkCBOW3WNLaWg8iS5tVXVHkxNIrfYMoYktOtgDEHt67xAoAc6P2wK5LDmv4HECvCOsl6ePHNiBuBAJ1JhZL1TXUHhjNqTOq9b0ImqXyHWt06A16GxCnGnVQQ+berRf2gG1QWiuG0EQ4DKRk2YPSA3QHRbZDGTPM1uiojpFWRyPaN8+VyomQBl97712YKOZYOneWMTWU63qUrTZZNZIo0Ml2e2XriDB5G2blmQ64aGoxOm6gPumsg3LsZOXKecz1ln1vOdsxtpw16SgAApB7PBf5AocTnubJBFcNYu+R5CH/1PHKlE2skH/qhFsMIOMcTZOGACu5Dd0j6VarHJqhNQXG9qVuRuRQAWz2QzrkIgDbMHtt8ojhsh0R9Y0HV6F+Nr1C/RYRoPbpawF4ONj7aaYUqKCNxaNX1Sa8guKxlBPeD0XLVbVdgijr3wUrj9q1yhcrj2a9efPhyKMtQCZ2Rh4N0G1rkK08WrgVO184SLRbeOz5Ybx49g8aC+erwPVec03ecGDf74ar8maFiTeY1S4kPBy/Pr0U/lBeH9430A+Hp6fLAnv93W6s9dVl2x1v/wI=);lineShape=1;" parent="126" vertex="1">
                    <mxGeometry x="10.973396724176155" y="38.1061381197253" width="3.5047843044464035" height="5.061194482885605" as="geometry"/>
                </mxCell>
                <mxCell id="130" value="" style="shape=stencil(lVnZThxBDPyafbX6Pp5J8h9IIWEVAoiQ6+9To1UPa/dMTXiDXVe7XT7a9p7izY/72+e7U3A/Xl+evt39Pn9+vT/FD6cQzo/3dy/nV/x1ih9P8ebL08vd15enn4+fL/8/3y6Sy1/fn34tJ/y54JykvICC+zs+8JcPPl3EH86PV+JeYlDiXjoRD1L06UlC3BeP0vTpRVzdF88SmxJvkvy+eJ3u7sWnffkuxWt53L4QboKEpAF12L8NyBL0jUBnIAZ7GFg0IEnvhH+4J2pAk+YIIEvWgBgkMw/3wckKKJSlGMXpmIhdOnEbzjNRkaKksA9IiGkdFwlHEA04r2tARhYQlhJCqWpApIGN87LRUMQTG3Be1ixlOI7lAljvOnf8uOQ2oA1OVkCUQgA4z5vszMMz2wBwom0olQYfzvM6gUof4bgNKFK10dWP6NoGtOGmFRAkMQ3dZlwFSyTjKjytaa1pXHIb4Ecwr4AsldiAG3tjdJFC/ABA036olYYGTEw6vGsTT1iCiW4CdKYhDRJXQJfGWMqWpeY4oEjUfmiB5jQ4sRricOU2AAmko7Uhfknla1MRaGUUnm0ASq8OvsaLQEs2H7qTShzXqgSnAdBJYql1+6L3NF697Uc02HLfEd4MkMYTuAKqOOK4XmzG9SaOhAa+TtECGvFD7/YFwieR0NrXYL4GEMfh654tIDGWun2yOi+V3rnB4hWiHKiYjGCFaQEUC2gHAG8B/YDXiSaWQcuNNU1XPOwi5jtxFTYjDo0okyMOaMp1cgQpNAtgcgRrRDc1ZB4bZWIpcQ1lutJBRtQ4AQ5iY6L1CDAZHQ/CdboSGzgWwEwrCb6dJH03oh5caqocrI3bNJs17JvEsm5gdt3/ZOl8J1bz3w1otn84SoliZwIcwd5ePHSmn8ZDVxjAj1dqBRSaQ21qXqGTVZpWp2CKtPFDw2ELh6dJh5bGDOGNFw40TRZQ6UCKtsxcCW1ZZe1xHSaugESHCLSWbmot2UuK5tVrWpunUwfa46jfFNDARl507FX3ouinWR8HgDdzDaKVtcfB0gre2DOHuaYHC2DtMQDeaFh7+L1Ry8yXIDoSP2CYC+ZKaRyxDai2BQJvrC5hIDUvL6xiOV2SbYFglSdGY6h22gbMtKwIFGd7UVwyERtys2NK4Sxl5IM2uvCtYI6jRqzLDd7tZmfzATpZtKZqNwnQebACqkaDo9uQNAXfshQiD0pEaGg/LGsnBgh2QfO22NpbxZnQWFZnJPhClqA9HSMNvuAHJ+s6kbdMvtn58m3BuA1APmjHQSfbGXlvJyfo9KzZsO86VFa2qrDFHhpZL51tMjS+3ZRksnNUkJ2FutnyJdrsuYlNGqPOzuputPl74sGIM99OnaqjSb8hzkLNWT85uoaGeDLinuQWxJsVp8x4ywzrKFbdV+L09GDvzh4l8GaJ5KfHYsWpm5LlnS1f3vl706E4/nj7aevL+eHh8svY9ff2pzB8dPkZLX78Bw==);lineShape=1;" parent="126" vertex="1">
                    <mxGeometry x="57.08029875680063" y="26.666300402283014" width="23.144464279434313" height="15.182304083307477" as="geometry"/>
                </mxCell>
                <mxCell id="131" value="" style="shape=stencil(lVjJUhtBDP0aX1WSutXLmZD/oAoTXCFAAdn+Ppq42kxr7EdxG4/fm9a+9C5dvd7fPO93yq9vL0/f978Pt2/3u/Rlp3p4vN+/HN78aZeud+nq7ull/+3l6efj7fH3882CXJ5+PP1avvDnyCuVUl5Yyn+Pb5iq/X/x9Yh/ODyu8Z3YJryRAXwVSjLhhakUQEikfSZkMgYEoz5rIJ20AYL/nSaCZqpApKbUy0RITKkCQqHOM8HGm7OEfjL6IGQhBjr0TGkWKRsVBYRKMps19+GZ84Sto5UEiCTMxLPWlikDM/kRqc2EQpYBoVANJzTo6u4iz2ayTgU4wj3Hs5mKOwKIVBuVOhMScQIEJpl1KEYVnLAIoDOhUQeuNhlGHISq0A9ZSWdX1zLOPEtIieqstOdUBmbVMlQcBM+pDKJPJYrUDCaEeHwHQqUMCpNXlRxE6rCSycmIg9AF6iDuuLn09USCcjTq7FnekZFGPp7wnRrws1CViO8d4VU3eOADHlV0LQ9IBY7p73gDdZiH9VZ4BVG3qUe9UQX68sj0FR6VeSYN+Eod4q1GPGqFspH/g5Cm3CIeyS+xrS3fB/7SkeNr+UE8a2xqi30gvteN/UH8nwrt2r9Q/jAoePwIsKdS6RFvUP6UIr6B+JSRrev8gv4K+bJquRcCrm8THuKNIx4FKMeZYunoMOFDJ3OHdYyXiDcQEBy7veMF6ps3CYyGX6a2wWN5PoevmwKUYIC2UV5XHcngiEZlJjRcob3nhQhqDUac2MjwVd9uKMc2PmsJjxIWq0rjMYKdrxJKbRap1mGG8+OQxDyumRS4zXiUwROBYWEsrvR8gq9haODyrUtnK/mUiVYWVzFsIH5mR6FklMK430b0nh9WNtOB1bG5XRreQ/k1GwXtImGuj+bpgETa6oD3NF8PLKxdZcxI563kNglblMKRbpla5wRKBc50TWJTSzI29EuejtusfbRgBx2WHEQnSCzznuUJR2sIbx+FUU6XEifHAlfNksccejoAfz/HqiRQ4wUfL0Uaksei0zz/0fctTu4MNwnHpx7wCiqY44sFPIPUdHyP8sNyVGLM4TnE8aYRjy6Zypib3vGoDy7VM8qDBkfHa5QH9eVPX5J9iPeH9xu5u8PDw/FCb/1/vMHzV8fbv3T9Dw==);lineShape=1;" parent="126" vertex="1">
                    <mxGeometry x="77.08220963615679" y="39.545120493638024" width="4.679498425681604" height="5.393608433556344" as="geometry"/>
                </mxCell>
                <mxCell id="132" value="" style="shape=stencil(lVjLbhsxDPwaXwlJlETpnKb/ESBObdSNA8fp4+/LrSF3yfWOkdt6l2OJ5HBEasMP77unt+0mhffz6fh9+2v/fN5t+Msmpf3rbnvan/Vpw48bfng5nrbfTseP1+fL77enyXJ6+nH8Of3D7wuOqecJlMKfy4tIWf69+HoxP+xfjXlr1jxSBPaZYjX2KVDNyL4Fay8U6rp9oZ6MPWcqvG4vlIqxz4kCsG/U7f5zp9TW7adwWAeKbrEDAJNYQI0jBrcBlYp1uWqICgB0ymwAEqmmdUBKlG2QpFCOAFCoWB+kDVrdBjQqYgAtEYM0s7LSOt0KjJLSIHQL0C2BRHP1zO4aJeB0DsTRApgKyENmz9WeYZSykFgfehmbvF0MyZOvV8juok4Xv0IB1KhpsH/mA6o35WbvPkoRhFX0c/Z5SIAaIp58TUsUUKNFn4emYQB5aNcgXgGZGGRag1it01IpAxHQNLmwKiACH7qWvCWflmgDOqwAJ6wTACSua4lWD+iAfF2jnrwPDDKtAKd8ChDkQ/dirLln5EMfO54BOqD3tCUnlQ0nTp0WD+iArRrW6qLUiXGmW/UAdEJP1GgLAKC3ko+zByQU1kKSvdMN1wMnD7hTQE4ENHGCyFcoRQ+IKHGqc26FShVtSUVAPCAheiuZlwWEwipDSeclitja/Ak0rYArzquGygyuaS8CFR6KU8WFRR4A+WIIFBYIwUXdFuy7ozN5SVesAp8D6IHjSq4J5IaeH+KOIPUKATRK7lTUkxjwW5ng1FgPaqRktY/EznqHApSsXrudK6BRAqku4snUr53pbUAksSvM2HK7Y6q+69MlUKubo291OyYTixcaDVMGusE8mvNZA4SkjMMYqK6AAAtCZ5pqV1D2ZbCCtuvBJkL5iIYsHQiia4ACFRAlHTniogFC/Nahxs1lkoZ8ro1N7uCtbZTIitAQO0CCk6hG1doXLH06Ii0mRUHEILFE0kmUQYGm0erMJl3UteogaiM6zb6gbwhe9PSNAH+DJ9Gdm4CFzuOLhuXfw7EhjI5lmAdYZMHPDAGKY/BjUhh0XQm942YYsrRiLn7vSOSSV6B75vUzm2GvoNhV9vqJA7kgPU7T8rYJkuDTd1l3zPXh/7XZy/5wuNy6zb/7azZ9dbmi48e/);lineShape=1;" parent="126" vertex="1">
                    <mxGeometry x="19.743489321287825" y="28.320831479214576" width="2.946527346118297" height="3.923684361236085" as="geometry"/>
                </mxCell>
                <mxCell id="133" value="" style="shape=stencil(lVfZbttADPwavRLc5Z7PafofAeLUQl07cNzr70tVWNlcWWPkTVFmxGt4eJCnj/3L+27w/HE5n77vfo+vl/0gXwbvx+N+dx4v+jTI8yBPb6fz7tv59PP4Ov/9/jIhp6cfp1/TF/7MPEeSJpLnv/OLkoj5/5uvM/4wHm/xTNEbQvaU4jZBLUQ2hOSJ0zZBmFwxhBgo1W1CYKrREEIkDyxEoWBdkkAFWEiJYjYErwS/TSienHXJqc28TaiZvDMEhiEovvZ4VLZaKHGHDyCAWnt/HPa/UrIZEmKgCsXXYGtGtWB8tbIjxvhi/a/kHMQHsfEyFVSAQsUG7LTmmNBn1GMLmeKaAFRaE5XQEzwqQiLfxeCIUZZi8/iaVY88ipQsXmWOqhZboy+tTw5/v1ORkEeqTiT2+661xRa+U512DfIn913AOJ+FpMd7rFL2nf9olCo+2vz4R11c7OgNJMAfx8vUWYY7yYM2tvhCAY+JaB3SthQ8t3gl6YxKpg6smibjSfo5QpGm4aUIiRyIIa1UJLnt0Pv7TPejnRQhtzf3N6bOBTvtYml5u7+TXSvTUudMGVhQoXU7OUfYmm65IhZlxLal77vUK2NaWcCAtE68waMV7tt+vCoPr1hHRXoDGWjb9cN30i5QKjcdL/gCVyz3R45OM3RG6dnV+a/DF8S7av0q7ZbcwncFcK2EW/7Y/BQtGI63E1CBy4n7XaaXLzpBPn0pP8Trw/UsfxsPh/mqv/1/f8brq/kngDz/Aw==);lineShape=1;" parent="126" vertex="1">
                    <mxGeometry x="19.03378662877003" y="29.291552268272426" width="2.3839374479419533" height="0.8001902056565973" as="geometry"/>
                </mxCell>
                <mxCell id="134" value="" style="shape=stencil(7VnJUhwxDP2auapky/JyJsl/UAWEqRBIEbL9fdSZctOWex5wy4Hb0Oi1ZUlPWx/k4vvt5bfrQ+TvT48PX65/Ha+ebg/y4RDj8f72+vH4ZL8O8vEgFzcPj9efHx9+3F+d/v52uUguv74+/Fze8PuEy8S6gCL/OT1gKuXfg08n8bvj/Ua8EbdBXKjwefHApGmQb1QykA8UeJAPiRQdEKiM+tsFRAEgEocRUEgqBDiVJFF9ARAHQIqUIrxDLiOgUWrYqiNAlQR6LYxe00YtnJevlEYbZelWOyNfZJRPJILkdZLPwEKVQvbyyAWFsnu/difuymdqxctHYM9McXo/sr9SSl4+AXuaNSZ59H6hxpP+gGZCcXo/sk+kEif7A31ip+DWv+C+cce/AuJhT55BvK3arvIBpq1MedTf+CJAvvn3q6VVxPjJwRpJ0YXZR5ClCHRjo0AYQzQpVeACEQoj55OQJABonSIrIPQ0sO8EJXUnWK0BLDabVPaADMJ6yWrRq6QAkM1N7C/NILBLIAnerAmUm6LEznEVhnYpVEfHaYDcKa2nwhVg4Q6qRw2ePVphBTQAjyfkCGts5V7vVkCGALuDjicUq+LgDqX2LmUFJIqoIhRq46XtFQGZtfQM2gFmBkUqFd9JVfMDIJABkjuh9nA8ZyV3QmPYJ5jGabRSi7hPyJ5AyxPA6TZV5maJB1y6tf7vDQDdwQClekADJwRmT2rTMmGd/BEVHrFziQbDdTGTegDKlYvZgwc0wKBmyXU8YWOHfYQRJvojUN5olhqzB2R0CSvT1QMisuvUCLeKpxEDTK5GjY8BXKdn0YRqkN3BtbYGEHSCUI0ewNhzrvCa86EfMqX6JkDxyfIllSpVfdOlWy9RrzWrRfNEOdRxL4DJ0zA0VkZugw9fWifKwfAuvT96LYGyHz1fwdE8UQ5mprcClrro7Kp9ONsHJD8bWsQnVHlnyoXeE+0D2AfTUhdR5WXvaqu8BbUb7Hssq5Sw3bA84/oTXITKWmc3/UlAbV/0hDAlUbgW6T3bpsd6AeCH7gjbPgO4Kdf6RDRCmJVc2lCFrWu2Iuj2EhH2WLn4wmtjUEYAi1Y3BhXYC2T2fLAGPwOzPg9umxEigxPSVEbtSQN3kDXUNiohAkmkyP7SqO7avOs2VmrBB1SycdT1iSqdIftNWabiBt6Muzjpfl2jlSGB3ldQ7yuo/3kFFfuaYJN90QQgPp61QYapzyqWeyN4/0T5ZeeMEuOU5vBSO/vEK6lHyLl4HvU3BqH3a2+1Nnt/tIjRvtdZey/M99QT4Nq1dIKeca9bwqTeTe6KWy5z2sA91TTRBpieeeoz4faefbngnqzPiGt24vBjhTc8w0VN8Hmf+yLzHK287oiF4udw3H9PSY1h4U1+GmW4CzGCBieOlsxKxYujlfEbP+y9KG4/nr8h3hzv7k6fILf/998c7dHpe6V8/As=);lineShape=1;" parent="126" vertex="1">
                    <mxGeometry x="70.19452727822693" y="27.96495829848118" width="1.888911066431226" height="5.078426449197067" as="geometry"/>
                </mxCell>
                <mxCell id="135" value="" style="shape=stencil(lVhJchsxDHyNriiS4Iaz4/zDVZZjVRTJJTvb74OJQpkENa34Nhqxh1gaDZAbvnt9fnjZboJ7fTsdv25/7h7fnjf8aRPC7vC8Pe3e9GnD9xu+ezqetl9Ox++Hx/Pvl4dl5fL07fhj+cKvM06EXF1Qwf0+vwkU8t8Xn8/r97tDt74mCuP6QgLWF0/Cw3qfyLl1QGZycTTIUYzrgBSo+hFQyPM6IAbrMkeSsA7gQF4GgH5C6jogMJUwAJKjAqLkM8nodKrkPAB4C8gRRqlSMWlz5FEaSMaglkgVeJCppnF9hbyolEZ7aiAGOVCH45iDqklLAJCIR+LVAndQmnEeAUIMQqQ+xzIAxJMDxOOJFhKoYKaGMaoSGxWv14InHmkhiTxganYtqx2gAqe1nqMBZGLAVHUxswUkYJK66MQCMgJopicAosZisQGUlvs1gFQLqAUAVIHG8pFKEZBPdyjJAlD9qNNi8iAUAZc0rP/y2gEKCitT9BYgyGnfVLQHALaKozSZVIEPWpBBLCABttZL1DuAQ7JUpkyrUiGTLjrdUQP1BgWkYAERmSRN2DuAQ1xylKd6KAgQWr/sSxQljikHC8iYfDasl4axVg9WBAoFJDO5MacDZOSDlqjxoVIAHXQRgQlQ0A6ZgukP0oantZoOE1uh8jHVqR7QJKOZNvXgnYPj2McROlhYdVWhAYAkLe59nAA5Ym1R6YsUlBDXaYfSxO16a5+LNMES0uEhGf3mpujXxxOmZHTDtz2vh5XKSCYVEtSCJmrUBBuKt6OGDmTIgQsJ+oEPhNTZ+U0HSuTvxLustQC+nywn9CBRQHy8swFNWGG86slIoqjdCgiGzof22OBhClgBo0k6MaJhLE5ziYZBUKmpi+Y0JvCslCcNW4iLaCrWpIx1W1vJyCMlCmoM0RrkmktrmuqSWe+wBou1B+pjbj3gP9dPLLphzzTB3PB3Os/fiKfYg5jDs4LY+OAzT9ct3gGMDTLC5XEPnBzweOj84IXH7fX68H678rTb78+XM/3/9jZGX51vcvj+Dw==);lineShape=1;" parent="126" vertex="1">
                    <mxGeometry x="73.68764584129656" y="29.147899707522924" width="1.586106336734165" height="4.263164557324275" as="geometry"/>
                </mxCell>
                <mxCell id="136" value="" style="shape=stencil(lVbZbuMwDPwavxISqfO5x38UaLoxNk2KNN3j75deQ6lFx1P0zVE4Eo8hh4Pcve+f3nYDu/fL+fRz93t8vuwHuR+Yx+N+dx4v+jXIwyB3L6fz7sf59HF8nn+/PU2W09fr6dd0w58ZFyiECcTu73zgiPP/g8fZ/DAeF+ZeKNbOPpLnbXtOlLmz95k8eEAS+d4hvSKlbUDIFiCZct0GxEK1dylUSm4bkJlK6gApUArbgFoo9i9U1664Dagt6VeApwKypIBceoAQe1A358i5HhEoR/hE9T0gkQgE2Khz83IrTcVEraVBLhVy0gNqo9dtQCbXp2mRh9sIpd/6CVSJuCpdJYeCCI1sizRVFEQgX2whAiC4AlzPVz354gWOlk2CglbqmCwxTmukYFxyuNTKtWABgnoukzgLYETXQrx6IaEsaV0NwOM61DYlFlnKKAZtuVXhYAwKMNSIVMAYmFwyAM0bDtqbpi5wWOrfsmqgiFzKFJwFVDQsk5WsCYDJF1cAyKXvApKG2A8B1QwUQ4xt9l5lVOkIZmUQKr3uBpVFQD5h+4IoNUAMrMreAybtRpLi24y4DtcIe5pth3oHyeptUj3uaJ0opmokIEOOQh9vgZ3grDBctWXD3MitVhwQQs37WHUvg6FK35VCHt6e+7nCTUg3Em9mrycP+oub3n2ukMh33abEmCO9FDtEsYB/c5/90lw/Plfnl/FwmDfv5f921dajeU2Xh38=);lineShape=1;" parent="126" vertex="1">
                    <mxGeometry x="73.61934930268967" y="30.090565070001958" width="1.7901194551570183" height="1.0873637238288119" as="geometry"/>
                </mxCell>
                <mxCell id="149" value="" style="group" parent="126" vertex="1" connectable="0">
                    <mxGeometry x="-52.92000000000007" y="44.93999999999994" width="110" height="44.93872892719437" as="geometry"/>
                </mxCell>
                <mxCell id="150" value="f(i=1 , pichla=2 )" style="text;html=1;align=center;verticalAlign=middle;resizable=0;points=[];autosize=1;strokeColor=none;fillColor=none;" parent="149" vertex="1">
                    <mxGeometry width="110" height="30" as="geometry"/>
                </mxCell>
                <mxCell id="193" value="" style="group" parent="149" vertex="1" connectable="0">
                    <mxGeometry x="10.389193732231888" y="26.666300402283014" width="71.3725143296065" height="18.272428524911355" as="geometry"/>
                </mxCell>
                <mxCell id="151" value="" style="shape=stencil(lVjbUlsxDPyavGpsyddnSv+DGULJlBIm0NvfV2nGzrF8zrZ5C8nK6LKS1t7J3fvzw9t+x+7943T8uv95ePx43smnHfPh9Xl/Onzop53c7+Tu6Xjafzkdv78+Xv5+ezgjz5++HX+cT/h1sauVqj9bsft9+cZRLn+/+HzBvxxel/hCKQx4phAAPlGNAz5Q9gAfKY7+JEoC8ELJDfhKHp3viUf/PZOv2walkNTRIFKJwCCSS2OGHDlk4ElkNAhU3LZBzsRjzBp0zcCAKY9BS6QAspqKjSF4coAWSYjHGIIWHvAiFht0VCcTMBAKY9B6RASVDvozj0wK5EDQQSgbg0rM2wZSyY1pzQFmSQLFMehcKADyiSOfB4Oi7QaC5tiy3g2UrSCt7KmU0aBQAVzyxQatLSUgBh8ojP9BexYVzntLbx0KDFxSKhmPUhtS61RqGen43Cq/XgUK4wjTIZgBkTwFc35tdV/FO2Jv8RVkVEkx+uOdThgwMNTATf8AkKLPqwW+QIccW3zG+MmfBAq8ho9goq75g5aUs9NO8QLP91PBGPS94qfzGeafJ/9RA7j269J/QGjXfl3mB/LHNpjmH+Mn/iTsz3R+hvWa/Ucr2bXqLPmPG1ImPG7IMf//0ZBzx0MCzQStYIS6tuiWCYIFmBsMqbTVhsQNP8UbcLwTgQQPiDrhcf6n83FD3ob3VqvoxkCKTkiKxSP+xDZeFxsPEbQ0bxcbtQI+6Aq2BA1w4uqStxEwXAE+W6FSHSVACc1pNlKotLbbkkJljEGlEDKQqWtUmUNdMAWtyhy1mRQrtrJAOaeSNI6FU2UeAfFU9Iox6NzaktVm1sUMZ6mqbrPMVLijG5c6YJpZrwYMqJFyExvdwMH1rdcbkyWtDLrEapmMQGC8MJUIZgDoFc2DOpRgK+0rrLSS2YhevWYyGAGquk1atWkjuol3qnV6N127dROXER/hJVNHULY3fYf8Ke0K2gNoB6zjVUOMtOhbcQtvLr1dFm7ii8WjAuhKlRvx0/noZaO2Eb3Ao5eZrumveI/zWa0/DOq10DRXA7nVAL4VdZV1xUNG91ePKx6+FVW7cxx+i7r1beyfeP1wfYh7Ory8XN7xlr/bhzv96vLoJ/d/AA==);lineShape=1;" parent="193" vertex="1">
                    <mxGeometry y="0.23644373002071006" width="28.965736569416784" height="13.767802135456641" as="geometry"/>
                </mxCell>
                <mxCell id="152" value="" style="shape=stencil(lVjbUhsxDP2avGp8l/VM6X8wQyiZUsKE0MvfV27qZS1vDsPbZlcnsq4+0i7evD7evex3wb2eT8fv+1+H+/PjLn7ZhXB4ftyfDmd92sXbXbx5OJ72307Ht+f7y++XuybZnn4cf7Z/+H3BhUouN1Rwf/6/ocD/Xny9yD8dntfymUoY5DOlDOQTRTfIVwoOyAcSHuR9oJQgIJURkKiiE3mSOgKYcoSA6kcXOfLIBt9PvAAi+QABzmgoFJDRzno1CGVwJC8UxrDFQCwAwMRxBBRotM9UjQah5AEgUhrjkALlAgDqpVFDypTrdUDtFi7ytXthU75QGTMpO2JgQSY/pmoOMPNS/7dFXqMMDGabqFmDjGKmDhoNLp4yMFhjZrKiRGJU/Y6C0VAoAhe1PDYAgWnU0nLMOw7dzdsAoWgAmSKonVTIGUDtOrfDHGzcauj1ug3QYhs1VNwki554bMK1wsxmb7u2+K5zG6DFawCRMvBSdSRjh5HcQ7kNyDYOovUEjFYTZUwNYQrAaP3MEyACDVJ7A1oDQMGJkHMWgNqqAtJ0JMYa6ng16CHR1eCdm85UYeRUhRQLEFBBCuCxC+ibiAFxAhSQG3oArhYgoIKaUwwLePfDteTIeVKBkqNM6Sc4dKW7fQVIGBCKBTiU4FqkU+TKBxrYAlAbaDYYDQyvLP1s7tzmaHQk7lfUuuaQ0XriuUhRfldLxxSAGGJL12wB0K2aCMkCBOW3WNLaWg8iS5tVXVHkxNIrfYMoYktOtgDEHt67xAoAc6P2wK5LDmv4HECvCOsl6ePHNiBuBAJ1JhZL1TXUHhjNqTOq9b0ImqXyHWt06A16GxCnGnVQQ+berRf2gG1QWiuG0EQ4DKRk2YPSA3QHRbZDGTPM1uiojpFWRyPaN8+VyomQBl97712YKOZYOneWMTWU63qUrTZZNZIo0Ml2e2XriDB5G2blmQ64aGoxOm6gPumsg3LsZOXKecz1ln1vOdsxtpw16SgAApB7PBf5AocTnubJBFcNYu+R5CH/1PHKlE2skH/qhFsMIOMcTZOGACu5Dd0j6VarHJqhNQXG9qVuRuRQAWz2QzrkIgDbMHtt8ojhsh0R9Y0HV6F+Nr1C/RYRoPbpawF4ONj7aaYUqKCNxaNX1Sa8guKxlBPeD0XLVbVdgijr3wUrj9q1yhcrj2a9efPhyKMtQCZ2Rh4N0G1rkK08WrgVO184SLRbeOz5Ybx49g8aC+erwPVec03ecGDf74ar8maFiTeY1S4kPBy/Pr0U/lBeH9430A+Hp6fLAnv93W6s9dVl2x1v/wI=);lineShape=1;" parent="193" vertex="1">
                    <mxGeometry x="0.5842029919442666" y="11.439837717442288" width="3.5047843044464035" height="5.061194482885605" as="geometry"/>
                </mxCell>
                <mxCell id="153" value="" style="shape=stencil(lVnZThxBDPyafbX6Pp5J8h9IIWEVAoiQ6+9To1UPa/dMTXiDXVe7XT7a9p7izY/72+e7U3A/Xl+evt39Pn9+vT/FD6cQzo/3dy/nV/x1ih9P8ebL08vd15enn4+fL/8/3y6Sy1/fn34tJ/y54JykvICC+zs+8JcPPl3EH86PV+JeYlDiXjoRD1L06UlC3BeP0vTpRVzdF88SmxJvkvy+eJ3u7sWnffkuxWt53L4QboKEpAF12L8NyBL0jUBnIAZ7GFg0IEnvhH+4J2pAk+YIIEvWgBgkMw/3wckKKJSlGMXpmIhdOnEbzjNRkaKksA9IiGkdFwlHEA04r2tARhYQlhJCqWpApIGN87LRUMQTG3Be1ixlOI7lAljvOnf8uOQ2oA1OVkCUQgA4z5vszMMz2wBwom0olQYfzvM6gUof4bgNKFK10dWP6NoGtOGmFRAkMQ3dZlwFSyTjKjytaa1pXHIb4Ecwr4AsldiAG3tjdJFC/ABA036olYYGTEw6vGsTT1iCiW4CdKYhDRJXQJfGWMqWpeY4oEjUfmiB5jQ4sRricOU2AAmko7Uhfknla1MRaGUUnm0ASq8OvsaLQEs2H7qTShzXqgSnAdBJYql1+6L3NF697Uc02HLfEd4MkMYTuAKqOOK4XmzG9SaOhAa+TtECGvFD7/YFwieR0NrXYL4GEMfh654tIDGWun2yOi+V3rnB4hWiHKiYjGCFaQEUC2gHAG8B/YDXiSaWQcuNNU1XPOwi5jtxFTYjDo0okyMOaMp1cgQpNAtgcgRrRDc1ZB4bZWIpcQ1lutJBRtQ4AQ5iY6L1CDAZHQ/CdboSGzgWwEwrCb6dJH03oh5caqocrI3bNJs17JvEsm5gdt3/ZOl8J1bz3w1otn84SoliZwIcwd5ePHSmn8ZDVxjAj1dqBRSaQ21qXqGTVZpWp2CKtPFDw2ELh6dJh5bGDOGNFw40TRZQ6UCKtsxcCW1ZZe1xHSaugESHCLSWbmot2UuK5tVrWpunUwfa46jfFNDARl507FX3ouinWR8HgDdzDaKVtcfB0gre2DOHuaYHC2DtMQDeaFh7+L1Ry8yXIDoSP2CYC+ZKaRyxDai2BQJvrC5hIDUvL6xiOV2SbYFglSdGY6h22gbMtKwIFGd7UVwyERtys2NK4Sxl5IM2uvCtYI6jRqzLDd7tZmfzATpZtKZqNwnQebACqkaDo9uQNAXfshQiD0pEaGg/LGsnBgh2QfO22NpbxZnQWFZnJPhClqA9HSMNvuAHJ+s6kbdMvtn58m3BuA1APmjHQSfbGXlvJyfo9KzZsO86VFa2qrDFHhpZL51tMjS+3ZRksnNUkJ2FutnyJdrsuYlNGqPOzuputPl74sGIM99OnaqjSb8hzkLNWT85uoaGeDLinuQWxJsVp8x4ywzrKFbdV+L09GDvzh4l8GaJ5KfHYsWpm5LlnS1f3vl706E4/nj7aevL+eHh8svY9ff2pzB8dPkZLX78Bw==);lineShape=1;" parent="193" vertex="1">
                    <mxGeometry x="46.69110502456874" width="23.144464279434313" height="15.182304083307477" as="geometry"/>
                </mxCell>
                <mxCell id="154" value="" style="shape=stencil(lVjJUhtBDP0aX1WSutXLmZD/oAoTXCFAAdn+Ppq42kxr7EdxG4/fm9a+9C5dvd7fPO93yq9vL0/f978Pt2/3u/Rlp3p4vN+/HN78aZeud+nq7ull/+3l6efj7fH3882CXJ5+PP1avvDnyCuVUl5Yyn+Pb5iq/X/x9Yh/ODyu8Z3YJryRAXwVSjLhhakUQEikfSZkMgYEoz5rIJ20AYL/nSaCZqpApKbUy0RITKkCQqHOM8HGm7OEfjL6IGQhBjr0TGkWKRsVBYRKMps19+GZ84Sto5UEiCTMxLPWlikDM/kRqc2EQpYBoVANJzTo6u4iz2ayTgU4wj3Hs5mKOwKIVBuVOhMScQIEJpl1KEYVnLAIoDOhUQeuNhlGHISq0A9ZSWdX1zLOPEtIieqstOdUBmbVMlQcBM+pDKJPJYrUDCaEeHwHQqUMCpNXlRxE6rCSycmIg9AF6iDuuLn09USCcjTq7FnekZFGPp7wnRrws1CViO8d4VU3eOADHlV0LQ9IBY7p73gDdZiH9VZ4BVG3qUe9UQX68sj0FR6VeSYN+Eod4q1GPGqFspH/g5Cm3CIeyS+xrS3fB/7SkeNr+UE8a2xqi30gvteN/UH8nwrt2r9Q/jAoePwIsKdS6RFvUP6UIr6B+JSRrev8gv4K+bJquRcCrm8THuKNIx4FKMeZYunoMOFDJ3OHdYyXiDcQEBy7veMF6ps3CYyGX6a2wWN5PoevmwKUYIC2UV5XHcngiEZlJjRcob3nhQhqDUac2MjwVd9uKMc2PmsJjxIWq0rjMYKdrxJKbRap1mGG8+OQxDyumRS4zXiUwROBYWEsrvR8gq9haODyrUtnK/mUiVYWVzFsIH5mR6FklMK430b0nh9WNtOB1bG5XRreQ/k1GwXtImGuj+bpgETa6oD3NF8PLKxdZcxI563kNglblMKRbpla5wRKBc50TWJTSzI29EuejtusfbRgBx2WHEQnSCzznuUJR2sIbx+FUU6XEifHAlfNksccejoAfz/HqiRQ4wUfL0Uaksei0zz/0fctTu4MNwnHpx7wCiqY44sFPIPUdHyP8sNyVGLM4TnE8aYRjy6Zypib3vGoDy7VM8qDBkfHa5QH9eVPX5J9iPeH9xu5u8PDw/FCb/1/vMHzV8fbv3T9Dw==);lineShape=1;" parent="193" vertex="1">
                    <mxGeometry x="66.6930159039249" y="12.87882009135501" width="4.679498425681604" height="5.393608433556344" as="geometry"/>
                </mxCell>
                <mxCell id="155" value="" style="shape=stencil(lVjLbhsxDPwaXwlJlETpnKb/ESBObdSNA8fp4+/LrSF3yfWOkdt6l2OJ5HBEasMP77unt+0mhffz6fh9+2v/fN5t+Msmpf3rbnvan/Vpw48bfng5nrbfTseP1+fL77enyXJ6+nH8Of3D7wuOqecJlMKfy4tIWf69+HoxP+xfjXlr1jxSBPaZYjX2KVDNyL4Fay8U6rp9oZ6MPWcqvG4vlIqxz4kCsG/U7f5zp9TW7adwWAeKbrEDAJNYQI0jBrcBlYp1uWqICgB0ymwAEqmmdUBKlG2QpFCOAFCoWB+kDVrdBjQqYgAtEYM0s7LSOt0KjJLSIHQL0C2BRHP1zO4aJeB0DsTRApgKyENmz9WeYZSykFgfehmbvF0MyZOvV8juok4Xv0IB1KhpsH/mA6o35WbvPkoRhFX0c/Z5SIAaIp58TUsUUKNFn4emYQB5aNcgXgGZGGRag1it01IpAxHQNLmwKiACH7qWvCWflmgDOqwAJ6wTACSua4lWD+iAfF2jnrwPDDKtAKd8ChDkQ/dirLln5EMfO54BOqD3tCUnlQ0nTp0WD+iArRrW6qLUiXGmW/UAdEJP1GgLAKC3ko+zByQU1kKSvdMN1wMnD7hTQE4ENHGCyFcoRQ+IKHGqc26FShVtSUVAPCAheiuZlwWEwipDSeclitja/Ak0rYArzquGygyuaS8CFR6KU8WFRR4A+WIIFBYIwUXdFuy7ozN5SVesAp8D6IHjSq4J5IaeH+KOIPUKATRK7lTUkxjwW5ng1FgPaqRktY/EznqHApSsXrudK6BRAqku4snUr53pbUAksSvM2HK7Y6q+69MlUKubo291OyYTixcaDVMGusE8mvNZA4SkjMMYqK6AAAtCZ5pqV1D2ZbCCtuvBJkL5iIYsHQiia4ACFRAlHTniogFC/Nahxs1lkoZ8ro1N7uCtbZTIitAQO0CCk6hG1doXLH06Ii0mRUHEILFE0kmUQYGm0erMJl3UteogaiM6zb6gbwhe9PSNAH+DJ9Gdm4CFzuOLhuXfw7EhjI5lmAdYZMHPDAGKY/BjUhh0XQm942YYsrRiLn7vSOSSV6B75vUzm2GvoNhV9vqJA7kgPU7T8rYJkuDTd1l3zPXh/7XZy/5wuNy6zb/7azZ9dbmi48e/);lineShape=1;" parent="193" vertex="1">
                    <mxGeometry x="9.354295589055937" y="1.654531076931562" width="2.946527346118297" height="3.923684361236085" as="geometry"/>
                </mxCell>
                <mxCell id="156" value="" style="shape=stencil(lVfZbttADPwavRLc5Z7PafofAeLUQl07cNzr70tVWNlcWWPkTVFmxGt4eJCnj/3L+27w/HE5n77vfo+vl/0gXwbvx+N+dx4v+jTI8yBPb6fz7tv59PP4Ov/9/jIhp6cfp1/TF/7MPEeSJpLnv/OLkoj5/5uvM/4wHm/xTNEbQvaU4jZBLUQ2hOSJ0zZBmFwxhBgo1W1CYKrREEIkDyxEoWBdkkAFWEiJYjYErwS/TSienHXJqc28TaiZvDMEhiEovvZ4VLZaKHGHDyCAWnt/HPa/UrIZEmKgCsXXYGtGtWB8tbIjxvhi/a/kHMQHsfEyFVSAQsUG7LTmmNBn1GMLmeKaAFRaE5XQEzwqQiLfxeCIUZZi8/iaVY88ipQsXmWOqhZboy+tTw5/v1ORkEeqTiT2+661xRa+U512DfIn913AOJ+FpMd7rFL2nf9olCo+2vz4R11c7OgNJMAfx8vUWYY7yYM2tvhCAY+JaB3SthQ8t3gl6YxKpg6smibjSfo5QpGm4aUIiRyIIa1UJLnt0Pv7TPejnRQhtzf3N6bOBTvtYml5u7+TXSvTUudMGVhQoXU7OUfYmm65IhZlxLal77vUK2NaWcCAtE68waMV7tt+vCoPr1hHRXoDGWjb9cN30i5QKjcdL/gCVyz3R45OM3RG6dnV+a/DF8S7av0q7ZbcwncFcK2EW/7Y/BQtGI63E1CBy4n7XaaXLzpBPn0pP8Trw/UsfxsPh/mqv/1/f8brq/kngDz/Aw==);lineShape=1;" parent="193" vertex="1">
                    <mxGeometry x="8.644592896538143" y="2.625251865989412" width="2.3839374479419533" height="0.8001902056565973" as="geometry"/>
                </mxCell>
                <mxCell id="157" value="" style="shape=stencil(7VnJUhwxDP2auapky/JyJsl/UAWEqRBIEbL9fdSZctOWex5wy4Hb0Oi1ZUlPWx/k4vvt5bfrQ+TvT48PX65/Ha+ebg/y4RDj8f72+vH4ZL8O8vEgFzcPj9efHx9+3F+d/v52uUguv74+/Fze8PuEy8S6gCL/OT1gKuXfg08n8bvj/Ua8EbdBXKjwefHApGmQb1QykA8UeJAPiRQdEKiM+tsFRAEgEocRUEgqBDiVJFF9ARAHQIqUIrxDLiOgUWrYqiNAlQR6LYxe00YtnJevlEYbZelWOyNfZJRPJILkdZLPwEKVQvbyyAWFsnu/difuymdqxctHYM9McXo/sr9SSl4+AXuaNSZ59H6hxpP+gGZCcXo/sk+kEif7A31ip+DWv+C+cce/AuJhT55BvK3arvIBpq1MedTf+CJAvvn3q6VVxPjJwRpJ0YXZR5ClCHRjo0AYQzQpVeACEQoj55OQJABonSIrIPQ0sO8EJXUnWK0BLDabVPaADMJ6yWrRq6QAkM1N7C/NILBLIAnerAmUm6LEznEVhnYpVEfHaYDcKa2nwhVg4Q6qRw2ePVphBTQAjyfkCGts5V7vVkCGALuDjicUq+LgDqX2LmUFJIqoIhRq46XtFQGZtfQM2gFmBkUqFd9JVfMDIJABkjuh9nA8ZyV3QmPYJ5jGabRSi7hPyJ5AyxPA6TZV5maJB1y6tf7vDQDdwQClekADJwRmT2rTMmGd/BEVHrFziQbDdTGTegDKlYvZgwc0wKBmyXU8YWOHfYQRJvojUN5olhqzB2R0CSvT1QMisuvUCLeKpxEDTK5GjY8BXKdn0YRqkN3BtbYGEHSCUI0ewNhzrvCa86EfMqX6JkDxyfIllSpVfdOlWy9RrzWrRfNEOdRxL4DJ0zA0VkZugw9fWifKwfAuvT96LYGyHz1fwdE8UQ5mprcClrro7Kp9ONsHJD8bWsQnVHlnyoXeE+0D2AfTUhdR5WXvaqu8BbUb7Hssq5Sw3bA84/oTXITKWmc3/UlAbV/0hDAlUbgW6T3bpsd6AeCH7gjbPgO4Kdf6RDRCmJVc2lCFrWu2Iuj2EhH2WLn4wmtjUEYAi1Y3BhXYC2T2fLAGPwOzPg9umxEigxPSVEbtSQN3kDXUNiohAkmkyP7SqO7avOs2VmrBB1SycdT1iSqdIftNWabiBt6Muzjpfl2jlSGB3ldQ7yuo/3kFFfuaYJN90QQgPp61QYapzyqWeyN4/0T5ZeeMEuOU5vBSO/vEK6lHyLl4HvU3BqH3a2+1Nnt/tIjRvtdZey/M99QT4Nq1dIKeca9bwqTeTe6KWy5z2sA91TTRBpieeeoz4faefbngnqzPiGt24vBjhTc8w0VN8Hmf+yLzHK287oiF4udw3H9PSY1h4U1+GmW4CzGCBieOlsxKxYujlfEbP+y9KG4/nr8h3hzv7k6fILf/998c7dHpe6V8/As=);lineShape=1;" parent="193" vertex="1">
                    <mxGeometry x="59.80533354599504" y="1.298657896198165" width="1.888911066431226" height="5.078426449197067" as="geometry"/>
                </mxCell>
                <mxCell id="158" value="" style="shape=stencil(lVhJchsxDHyNriiS4Iaz4/zDVZZjVRTJJTvb74OJQpkENa34Nhqxh1gaDZAbvnt9fnjZboJ7fTsdv25/7h7fnjf8aRPC7vC8Pe3e9GnD9xu+ezqetl9Ox++Hx/Pvl4dl5fL07fhj+cKvM06EXF1Qwf0+vwkU8t8Xn8/r97tDt74mCuP6QgLWF0/Cw3qfyLl1QGZycTTIUYzrgBSo+hFQyPM6IAbrMkeSsA7gQF4GgH5C6jogMJUwAJKjAqLkM8nodKrkPAB4C8gRRqlSMWlz5FEaSMaglkgVeJCppnF9hbyolEZ7aiAGOVCH45iDqklLAJCIR+LVAndQmnEeAUIMQqQ+xzIAxJMDxOOJFhKoYKaGMaoSGxWv14InHmkhiTxganYtqx2gAqe1nqMBZGLAVHUxswUkYJK66MQCMgJopicAosZisQGUlvs1gFQLqAUAVIHG8pFKEZBPdyjJAlD9qNNi8iAUAZc0rP/y2gEKCitT9BYgyGnfVLQHALaKozSZVIEPWpBBLCABttZL1DuAQ7JUpkyrUiGTLjrdUQP1BgWkYAERmSRN2DuAQ1xylKd6KAgQWr/sSxQljikHC8iYfDasl4axVg9WBAoFJDO5MacDZOSDlqjxoVIAHXQRgQlQ0A6ZgukP0oantZoOE1uh8jHVqR7QJKOZNvXgnYPj2McROlhYdVWhAYAkLe59nAA5Ym1R6YsUlBDXaYfSxO16a5+LNMES0uEhGf3mpujXxxOmZHTDtz2vh5XKSCYVEtSCJmrUBBuKt6OGDmTIgQsJ+oEPhNTZ+U0HSuTvxLustQC+nywn9CBRQHy8swFNWGG86slIoqjdCgiGzof22OBhClgBo0k6MaJhLE5ziYZBUKmpi+Y0JvCslCcNW4iLaCrWpIx1W1vJyCMlCmoM0RrkmktrmuqSWe+wBou1B+pjbj3gP9dPLLphzzTB3PB3Os/fiKfYg5jDs4LY+OAzT9ct3gGMDTLC5XEPnBzweOj84IXH7fX68H678rTb78+XM/3/9jZGX51vcvj+Dw==);lineShape=1;" parent="193" vertex="1">
                    <mxGeometry x="63.29845210906467" y="2.481599305239911" width="1.586106336734165" height="4.263164557324275" as="geometry"/>
                </mxCell>
                <mxCell id="159" value="" style="shape=stencil(lVbZbuMwDPwavxISqfO5x38UaLoxNk2KNN3j75deQ6lFx1P0zVE4Eo8hh4Pcve+f3nYDu/fL+fRz93t8vuwHuR+Yx+N+dx4v+jXIwyB3L6fz7sf59HF8nn+/PU2W09fr6dd0w58ZFyiECcTu73zgiPP/g8fZ/DAeF+ZeKNbOPpLnbXtOlLmz95k8eEAS+d4hvSKlbUDIFiCZct0GxEK1dylUSm4bkJlK6gApUArbgFoo9i9U1664Dagt6VeApwKypIBceoAQe1A358i5HhEoR/hE9T0gkQgE2Khz83IrTcVEraVBLhVy0gNqo9dtQCbXp2mRh9sIpd/6CVSJuCpdJYeCCI1sizRVFEQgX2whAiC4AlzPVz354gWOlk2CglbqmCwxTmukYFxyuNTKtWABgnoukzgLYETXQrx6IaEsaV0NwOM61DYlFlnKKAZtuVXhYAwKMNSIVMAYmFwyAM0bDtqbpi5wWOrfsmqgiFzKFJwFVDQsk5WsCYDJF1cAyKXvApKG2A8B1QwUQ4xt9l5lVOkIZmUQKr3uBpVFQD5h+4IoNUAMrMreAybtRpLi24y4DtcIe5pth3oHyeptUj3uaJ0opmokIEOOQh9vgZ3grDBctWXD3MitVhwQQs37WHUvg6FK35VCHt6e+7nCTUg3Em9mrycP+oub3n2ukMh33abEmCO9FDtEsYB/c5/90lw/Plfnl/FwmDfv5f921dajeU2Xh38=);lineShape=1;" parent="193" vertex="1">
                    <mxGeometry x="63.23015557045778" y="3.424264667718944" width="1.7901194551570183" height="1.0873637238288119" as="geometry"/>
                </mxCell>
                <mxCell id="137" value="" style="group" parent="1" vertex="1" connectable="0">
                    <mxGeometry x="-1045" y="-730" width="110" height="89.87872892719432" as="geometry"/>
                </mxCell>
                <mxCell id="138" value="f(i=2 , pichla=-1 )" style="text;html=1;align=center;verticalAlign=middle;resizable=0;points=[];autosize=1;strokeColor=none;fillColor=none;" parent="137" vertex="1">
                    <mxGeometry width="110" height="30" as="geometry"/>
                </mxCell>
                <mxCell id="139" value="" style="shape=stencil(lVjbUlsxDPyavGpsyddnSv+DGULJlBIm0NvfV2nGzrF8zrZ5C8nK6LKS1t7J3fvzw9t+x+7943T8uv95ePx43smnHfPh9Xl/Onzop53c7+Tu6Xjafzkdv78+Xv5+ezgjz5++HX+cT/h1sauVqj9bsft9+cZRLn+/+HzBvxxel/hCKQx4phAAPlGNAz5Q9gAfKY7+JEoC8ELJDfhKHp3viUf/PZOv2walkNTRIFKJwCCSS2OGHDlk4ElkNAhU3LZBzsRjzBp0zcCAKY9BS6QAspqKjSF4coAWSYjHGIIWHvAiFht0VCcTMBAKY9B6RASVDvozj0wK5EDQQSgbg0rM2wZSyY1pzQFmSQLFMehcKADyiSOfB4Oi7QaC5tiy3g2UrSCt7KmU0aBQAVzyxQatLSUgBh8ojP9BexYVzntLbx0KDFxSKhmPUhtS61RqGen43Cq/XgUK4wjTIZgBkTwFc35tdV/FO2Jv8RVkVEkx+uOdThgwMNTATf8AkKLPqwW+QIccW3zG+MmfBAq8ho9goq75g5aUs9NO8QLP91PBGPS94qfzGeafJ/9RA7j269J/QGjXfl3mB/LHNpjmH+Mn/iTsz3R+hvWa/Ucr2bXqLPmPG1ImPG7IMf//0ZBzx0MCzQStYIS6tuiWCYIFmBsMqbTVhsQNP8UbcLwTgQQPiDrhcf6n83FD3ob3VqvoxkCKTkiKxSP+xDZeFxsPEbQ0bxcbtQI+6Aq2BA1w4uqStxEwXAE+W6FSHSVACc1pNlKotLbbkkJljEGlEDKQqWtUmUNdMAWtyhy1mRQrtrJAOaeSNI6FU2UeAfFU9Iox6NzaktVm1sUMZ6mqbrPMVLijG5c6YJpZrwYMqJFyExvdwMH1rdcbkyWtDLrEapmMQGC8MJUIZgDoFc2DOpRgK+0rrLSS2YhevWYyGAGquk1atWkjuol3qnV6N127dROXER/hJVNHULY3fYf8Ke0K2gNoB6zjVUOMtOhbcQtvLr1dFm7ii8WjAuhKlRvx0/noZaO2Eb3Ao5eZrumveI/zWa0/DOq10DRXA7nVAL4VdZV1xUNG91ePKx6+FVW7cxx+i7r1beyfeP1wfYh7Ory8XN7xlr/bhzv96vLoJ/d/AA==);lineShape=1;" parent="137" vertex="1">
                    <mxGeometry x="10.389193732231888" y="26.902744132303724" width="28.965736569416784" height="13.767802135456641" as="geometry"/>
                </mxCell>
                <mxCell id="140" value="" style="shape=stencil(lVjbUhsxDP2avGp8l/VM6X8wQyiZUsKE0MvfV27qZS1vDsPbZlcnsq4+0i7evD7evex3wb2eT8fv+1+H+/PjLn7ZhXB4ftyfDmd92sXbXbx5OJ72307Ht+f7y++XuybZnn4cf7Z/+H3BhUouN1Rwf/6/ocD/Xny9yD8dntfymUoY5DOlDOQTRTfIVwoOyAcSHuR9oJQgIJURkKiiE3mSOgKYcoSA6kcXOfLIBt9PvAAi+QABzmgoFJDRzno1CGVwJC8UxrDFQCwAwMRxBBRotM9UjQah5AEgUhrjkALlAgDqpVFDypTrdUDtFi7ytXthU75QGTMpO2JgQSY/pmoOMPNS/7dFXqMMDGabqFmDjGKmDhoNLp4yMFhjZrKiRGJU/Y6C0VAoAhe1PDYAgWnU0nLMOw7dzdsAoWgAmSKonVTIGUDtOrfDHGzcauj1ug3QYhs1VNwki554bMK1wsxmb7u2+K5zG6DFawCRMvBSdSRjh5HcQ7kNyDYOovUEjFYTZUwNYQrAaP3MEyACDVJ7A1oDQMGJkHMWgNqqAtJ0JMYa6ng16CHR1eCdm85UYeRUhRQLEFBBCuCxC+ibiAFxAhSQG3oArhYgoIKaUwwLePfDteTIeVKBkqNM6Sc4dKW7fQVIGBCKBTiU4FqkU+TKBxrYAlAbaDYYDQyvLP1s7tzmaHQk7lfUuuaQ0XriuUhRfldLxxSAGGJL12wB0K2aCMkCBOW3WNLaWg8iS5tVXVHkxNIrfYMoYktOtgDEHt67xAoAc6P2wK5LDmv4HECvCOsl6ePHNiBuBAJ1JhZL1TXUHhjNqTOq9b0ImqXyHWt06A16GxCnGnVQQ+berRf2gG1QWiuG0EQ4DKRk2YPSA3QHRbZDGTPM1uiojpFWRyPaN8+VyomQBl97712YKOZYOneWMTWU63qUrTZZNZIo0Ml2e2XriDB5G2blmQ64aGoxOm6gPumsg3LsZOXKecz1ln1vOdsxtpw16SgAApB7PBf5AocTnubJBFcNYu+R5CH/1PHKlE2skH/qhFsMIOMcTZOGACu5Dd0j6VarHJqhNQXG9qVuRuRQAWz2QzrkIgDbMHtt8ojhsh0R9Y0HV6F+Nr1C/RYRoPbpawF4ONj7aaYUqKCNxaNX1Sa8guKxlBPeD0XLVbVdgijr3wUrj9q1yhcrj2a9efPhyKMtQCZ2Rh4N0G1rkK08WrgVO184SLRbeOz5Ybx49g8aC+erwPVec03ecGDf74ar8maFiTeY1S4kPBy/Pr0U/lBeH9430A+Hp6fLAnv93W6s9dVl2x1v/wI=);lineShape=1;" parent="137" vertex="1">
                    <mxGeometry x="10.973396724176155" y="38.1061381197253" width="3.5047843044464035" height="5.061194482885605" as="geometry"/>
                </mxCell>
                <mxCell id="141" value="" style="shape=stencil(lVnZThxBDPyafbX6Pp5J8h9IIWEVAoiQ6+9To1UPa/dMTXiDXVe7XT7a9p7izY/72+e7U3A/Xl+evt39Pn9+vT/FD6cQzo/3dy/nV/x1ih9P8ebL08vd15enn4+fL/8/3y6Sy1/fn34tJ/y54JykvICC+zs+8JcPPl3EH86PV+JeYlDiXjoRD1L06UlC3BeP0vTpRVzdF88SmxJvkvy+eJ3u7sWnffkuxWt53L4QboKEpAF12L8NyBL0jUBnIAZ7GFg0IEnvhH+4J2pAk+YIIEvWgBgkMw/3wckKKJSlGMXpmIhdOnEbzjNRkaKksA9IiGkdFwlHEA04r2tARhYQlhJCqWpApIGN87LRUMQTG3Be1ixlOI7lAljvOnf8uOQ2oA1OVkCUQgA4z5vszMMz2wBwom0olQYfzvM6gUof4bgNKFK10dWP6NoGtOGmFRAkMQ3dZlwFSyTjKjytaa1pXHIb4Ecwr4AsldiAG3tjdJFC/ABA036olYYGTEw6vGsTT1iCiW4CdKYhDRJXQJfGWMqWpeY4oEjUfmiB5jQ4sRricOU2AAmko7Uhfknla1MRaGUUnm0ASq8OvsaLQEs2H7qTShzXqgSnAdBJYql1+6L3NF697Uc02HLfEd4MkMYTuAKqOOK4XmzG9SaOhAa+TtECGvFD7/YFwieR0NrXYL4GEMfh654tIDGWun2yOi+V3rnB4hWiHKiYjGCFaQEUC2gHAG8B/YDXiSaWQcuNNU1XPOwi5jtxFTYjDo0okyMOaMp1cgQpNAtgcgRrRDc1ZB4bZWIpcQ1lutJBRtQ4AQ5iY6L1CDAZHQ/CdboSGzgWwEwrCb6dJH03oh5caqocrI3bNJs17JvEsm5gdt3/ZOl8J1bz3w1otn84SoliZwIcwd5ePHSmn8ZDVxjAj1dqBRSaQ21qXqGTVZpWp2CKtPFDw2ELh6dJh5bGDOGNFw40TRZQ6UCKtsxcCW1ZZe1xHSaugESHCLSWbmot2UuK5tVrWpunUwfa46jfFNDARl507FX3ouinWR8HgDdzDaKVtcfB0gre2DOHuaYHC2DtMQDeaFh7+L1Ry8yXIDoSP2CYC+ZKaRyxDai2BQJvrC5hIDUvL6xiOV2SbYFglSdGY6h22gbMtKwIFGd7UVwyERtys2NK4Sxl5IM2uvCtYI6jRqzLDd7tZmfzATpZtKZqNwnQebACqkaDo9uQNAXfshQiD0pEaGg/LGsnBgh2QfO22NpbxZnQWFZnJPhClqA9HSMNvuAHJ+s6kbdMvtn58m3BuA1APmjHQSfbGXlvJyfo9KzZsO86VFa2qrDFHhpZL51tMjS+3ZRksnNUkJ2FutnyJdrsuYlNGqPOzuputPl74sGIM99OnaqjSb8hzkLNWT85uoaGeDLinuQWxJsVp8x4ywzrKFbdV+L09GDvzh4l8GaJ5KfHYsWpm5LlnS1f3vl706E4/nj7aevL+eHh8svY9ff2pzB8dPkZLX78Bw==);lineShape=1;" parent="137" vertex="1">
                    <mxGeometry x="57.08029875680063" y="26.666300402283014" width="23.144464279434313" height="15.182304083307477" as="geometry"/>
                </mxCell>
                <mxCell id="142" value="" style="shape=stencil(lVjJUhtBDP0aX1WSutXLmZD/oAoTXCFAAdn+Ppq42kxr7EdxG4/fm9a+9C5dvd7fPO93yq9vL0/f978Pt2/3u/Rlp3p4vN+/HN78aZeud+nq7ull/+3l6efj7fH3882CXJ5+PP1avvDnyCuVUl5Yyn+Pb5iq/X/x9Yh/ODyu8Z3YJryRAXwVSjLhhakUQEikfSZkMgYEoz5rIJ20AYL/nSaCZqpApKbUy0RITKkCQqHOM8HGm7OEfjL6IGQhBjr0TGkWKRsVBYRKMps19+GZ84Sto5UEiCTMxLPWlikDM/kRqc2EQpYBoVANJzTo6u4iz2ayTgU4wj3Hs5mKOwKIVBuVOhMScQIEJpl1KEYVnLAIoDOhUQeuNhlGHISq0A9ZSWdX1zLOPEtIieqstOdUBmbVMlQcBM+pDKJPJYrUDCaEeHwHQqUMCpNXlRxE6rCSycmIg9AF6iDuuLn09USCcjTq7FnekZFGPp7wnRrws1CViO8d4VU3eOADHlV0LQ9IBY7p73gDdZiH9VZ4BVG3qUe9UQX68sj0FR6VeSYN+Eod4q1GPGqFspH/g5Cm3CIeyS+xrS3fB/7SkeNr+UE8a2xqi30gvteN/UH8nwrt2r9Q/jAoePwIsKdS6RFvUP6UIr6B+JSRrev8gv4K+bJquRcCrm8THuKNIx4FKMeZYunoMOFDJ3OHdYyXiDcQEBy7veMF6ps3CYyGX6a2wWN5PoevmwKUYIC2UV5XHcngiEZlJjRcob3nhQhqDUac2MjwVd9uKMc2PmsJjxIWq0rjMYKdrxJKbRap1mGG8+OQxDyumRS4zXiUwROBYWEsrvR8gq9haODyrUtnK/mUiVYWVzFsIH5mR6FklMK430b0nh9WNtOB1bG5XRreQ/k1GwXtImGuj+bpgETa6oD3NF8PLKxdZcxI563kNglblMKRbpla5wRKBc50TWJTSzI29EuejtusfbRgBx2WHEQnSCzznuUJR2sIbx+FUU6XEifHAlfNksccejoAfz/HqiRQ4wUfL0Uaksei0zz/0fctTu4MNwnHpx7wCiqY44sFPIPUdHyP8sNyVGLM4TnE8aYRjy6Zypib3vGoDy7VM8qDBkfHa5QH9eVPX5J9iPeH9xu5u8PDw/FCb/1/vMHzV8fbv3T9Dw==);lineShape=1;" parent="137" vertex="1">
                    <mxGeometry x="77.08220963615679" y="39.545120493638024" width="4.679498425681604" height="5.393608433556344" as="geometry"/>
                </mxCell>
                <mxCell id="143" value="" style="shape=stencil(lVjLbhsxDPwaXwlJlETpnKb/ESBObdSNA8fp4+/LrSF3yfWOkdt6l2OJ5HBEasMP77unt+0mhffz6fh9+2v/fN5t+Msmpf3rbnvan/Vpw48bfng5nrbfTseP1+fL77enyXJ6+nH8Of3D7wuOqecJlMKfy4tIWf69+HoxP+xfjXlr1jxSBPaZYjX2KVDNyL4Fay8U6rp9oZ6MPWcqvG4vlIqxz4kCsG/U7f5zp9TW7adwWAeKbrEDAJNYQI0jBrcBlYp1uWqICgB0ymwAEqmmdUBKlG2QpFCOAFCoWB+kDVrdBjQqYgAtEYM0s7LSOt0KjJLSIHQL0C2BRHP1zO4aJeB0DsTRApgKyENmz9WeYZSykFgfehmbvF0MyZOvV8juok4Xv0IB1KhpsH/mA6o35WbvPkoRhFX0c/Z5SIAaIp58TUsUUKNFn4emYQB5aNcgXgGZGGRag1it01IpAxHQNLmwKiACH7qWvCWflmgDOqwAJ6wTACSua4lWD+iAfF2jnrwPDDKtAKd8ChDkQ/dirLln5EMfO54BOqD3tCUnlQ0nTp0WD+iArRrW6qLUiXGmW/UAdEJP1GgLAKC3ko+zByQU1kKSvdMN1wMnD7hTQE4ENHGCyFcoRQ+IKHGqc26FShVtSUVAPCAheiuZlwWEwipDSeclitja/Ak0rYArzquGygyuaS8CFR6KU8WFRR4A+WIIFBYIwUXdFuy7ozN5SVesAp8D6IHjSq4J5IaeH+KOIPUKATRK7lTUkxjwW5ng1FgPaqRktY/EznqHApSsXrudK6BRAqku4snUr53pbUAksSvM2HK7Y6q+69MlUKubo291OyYTixcaDVMGusE8mvNZA4SkjMMYqK6AAAtCZ5pqV1D2ZbCCtuvBJkL5iIYsHQiia4ACFRAlHTniogFC/Nahxs1lkoZ8ro1N7uCtbZTIitAQO0CCk6hG1doXLH06Ii0mRUHEILFE0kmUQYGm0erMJl3UteogaiM6zb6gbwhe9PSNAH+DJ9Gdm4CFzuOLhuXfw7EhjI5lmAdYZMHPDAGKY/BjUhh0XQm942YYsrRiLn7vSOSSV6B75vUzm2GvoNhV9vqJA7kgPU7T8rYJkuDTd1l3zPXh/7XZy/5wuNy6zb/7azZ9dbmi48e/);lineShape=1;" parent="137" vertex="1">
                    <mxGeometry x="19.743489321287825" y="28.320831479214576" width="2.946527346118297" height="3.923684361236085" as="geometry"/>
                </mxCell>
                <mxCell id="144" value="" style="shape=stencil(lVfZbttADPwavRLc5Z7PafofAeLUQl07cNzr70tVWNlcWWPkTVFmxGt4eJCnj/3L+27w/HE5n77vfo+vl/0gXwbvx+N+dx4v+jTI8yBPb6fz7tv59PP4Ov/9/jIhp6cfp1/TF/7MPEeSJpLnv/OLkoj5/5uvM/4wHm/xTNEbQvaU4jZBLUQ2hOSJ0zZBmFwxhBgo1W1CYKrREEIkDyxEoWBdkkAFWEiJYjYErwS/TSienHXJqc28TaiZvDMEhiEovvZ4VLZaKHGHDyCAWnt/HPa/UrIZEmKgCsXXYGtGtWB8tbIjxvhi/a/kHMQHsfEyFVSAQsUG7LTmmNBn1GMLmeKaAFRaE5XQEzwqQiLfxeCIUZZi8/iaVY88ipQsXmWOqhZboy+tTw5/v1ORkEeqTiT2+661xRa+U512DfIn913AOJ+FpMd7rFL2nf9olCo+2vz4R11c7OgNJMAfx8vUWYY7yYM2tvhCAY+JaB3SthQ8t3gl6YxKpg6smibjSfo5QpGm4aUIiRyIIa1UJLnt0Pv7TPejnRQhtzf3N6bOBTvtYml5u7+TXSvTUudMGVhQoXU7OUfYmm65IhZlxLal77vUK2NaWcCAtE68waMV7tt+vCoPr1hHRXoDGWjb9cN30i5QKjcdL/gCVyz3R45OM3RG6dnV+a/DF8S7av0q7ZbcwncFcK2EW/7Y/BQtGI63E1CBy4n7XaaXLzpBPn0pP8Trw/UsfxsPh/mqv/1/f8brq/kngDz/Aw==);lineShape=1;" parent="137" vertex="1">
                    <mxGeometry x="19.03378662877003" y="29.291552268272426" width="2.3839374479419533" height="0.8001902056565973" as="geometry"/>
                </mxCell>
                <mxCell id="145" value="" style="shape=stencil(7VnJUhwxDP2auapky/JyJsl/UAWEqRBIEbL9fdSZctOWex5wy4Hb0Oi1ZUlPWx/k4vvt5bfrQ+TvT48PX65/Ha+ebg/y4RDj8f72+vH4ZL8O8vEgFzcPj9efHx9+3F+d/v52uUguv74+/Fze8PuEy8S6gCL/OT1gKuXfg08n8bvj/Ua8EbdBXKjwefHApGmQb1QykA8UeJAPiRQdEKiM+tsFRAEgEocRUEgqBDiVJFF9ARAHQIqUIrxDLiOgUWrYqiNAlQR6LYxe00YtnJevlEYbZelWOyNfZJRPJILkdZLPwEKVQvbyyAWFsnu/difuymdqxctHYM9McXo/sr9SSl4+AXuaNSZ59H6hxpP+gGZCcXo/sk+kEif7A31ip+DWv+C+cce/AuJhT55BvK3arvIBpq1MedTf+CJAvvn3q6VVxPjJwRpJ0YXZR5ClCHRjo0AYQzQpVeACEQoj55OQJABonSIrIPQ0sO8EJXUnWK0BLDabVPaADMJ6yWrRq6QAkM1N7C/NILBLIAnerAmUm6LEznEVhnYpVEfHaYDcKa2nwhVg4Q6qRw2ePVphBTQAjyfkCGts5V7vVkCGALuDjicUq+LgDqX2LmUFJIqoIhRq46XtFQGZtfQM2gFmBkUqFd9JVfMDIJABkjuh9nA8ZyV3QmPYJ5jGabRSi7hPyJ5AyxPA6TZV5maJB1y6tf7vDQDdwQClekADJwRmT2rTMmGd/BEVHrFziQbDdTGTegDKlYvZgwc0wKBmyXU8YWOHfYQRJvojUN5olhqzB2R0CSvT1QMisuvUCLeKpxEDTK5GjY8BXKdn0YRqkN3BtbYGEHSCUI0ewNhzrvCa86EfMqX6JkDxyfIllSpVfdOlWy9RrzWrRfNEOdRxL4DJ0zA0VkZugw9fWifKwfAuvT96LYGyHz1fwdE8UQ5mprcClrro7Kp9ONsHJD8bWsQnVHlnyoXeE+0D2AfTUhdR5WXvaqu8BbUb7Hssq5Sw3bA84/oTXITKWmc3/UlAbV/0hDAlUbgW6T3bpsd6AeCH7gjbPgO4Kdf6RDRCmJVc2lCFrWu2Iuj2EhH2WLn4wmtjUEYAi1Y3BhXYC2T2fLAGPwOzPg9umxEigxPSVEbtSQN3kDXUNiohAkmkyP7SqO7avOs2VmrBB1SycdT1iSqdIftNWabiBt6Muzjpfl2jlSGB3ldQ7yuo/3kFFfuaYJN90QQgPp61QYapzyqWeyN4/0T5ZeeMEuOU5vBSO/vEK6lHyLl4HvU3BqH3a2+1Nnt/tIjRvtdZey/M99QT4Nq1dIKeca9bwqTeTe6KWy5z2sA91TTRBpieeeoz4faefbngnqzPiGt24vBjhTc8w0VN8Hmf+yLzHK287oiF4udw3H9PSY1h4U1+GmW4CzGCBieOlsxKxYujlfEbP+y9KG4/nr8h3hzv7k6fILf/998c7dHpe6V8/As=);lineShape=1;" parent="137" vertex="1">
                    <mxGeometry x="70.19452727822693" y="27.96495829848118" width="1.888911066431226" height="5.078426449197067" as="geometry"/>
                </mxCell>
                <mxCell id="146" value="" style="shape=stencil(lVhJchsxDHyNriiS4Iaz4/zDVZZjVRTJJTvb74OJQpkENa34Nhqxh1gaDZAbvnt9fnjZboJ7fTsdv25/7h7fnjf8aRPC7vC8Pe3e9GnD9xu+ezqetl9Ox++Hx/Pvl4dl5fL07fhj+cKvM06EXF1Qwf0+vwkU8t8Xn8/r97tDt74mCuP6QgLWF0/Cw3qfyLl1QGZycTTIUYzrgBSo+hFQyPM6IAbrMkeSsA7gQF4GgH5C6jogMJUwAJKjAqLkM8nodKrkPAB4C8gRRqlSMWlz5FEaSMaglkgVeJCppnF9hbyolEZ7aiAGOVCH45iDqklLAJCIR+LVAndQmnEeAUIMQqQ+xzIAxJMDxOOJFhKoYKaGMaoSGxWv14InHmkhiTxganYtqx2gAqe1nqMBZGLAVHUxswUkYJK66MQCMgJopicAosZisQGUlvs1gFQLqAUAVIHG8pFKEZBPdyjJAlD9qNNi8iAUAZc0rP/y2gEKCitT9BYgyGnfVLQHALaKozSZVIEPWpBBLCABttZL1DuAQ7JUpkyrUiGTLjrdUQP1BgWkYAERmSRN2DuAQ1xylKd6KAgQWr/sSxQljikHC8iYfDasl4axVg9WBAoFJDO5MacDZOSDlqjxoVIAHXQRgQlQ0A6ZgukP0oantZoOE1uh8jHVqR7QJKOZNvXgnYPj2McROlhYdVWhAYAkLe59nAA5Ym1R6YsUlBDXaYfSxO16a5+LNMES0uEhGf3mpujXxxOmZHTDtz2vh5XKSCYVEtSCJmrUBBuKt6OGDmTIgQsJ+oEPhNTZ+U0HSuTvxLustQC+nywn9CBRQHy8swFNWGG86slIoqjdCgiGzof22OBhClgBo0k6MaJhLE5ziYZBUKmpi+Y0JvCslCcNW4iLaCrWpIx1W1vJyCMlCmoM0RrkmktrmuqSWe+wBou1B+pjbj3gP9dPLLphzzTB3PB3Os/fiKfYg5jDs4LY+OAzT9ct3gGMDTLC5XEPnBzweOj84IXH7fX68H678rTb78+XM/3/9jZGX51vcvj+Dw==);lineShape=1;" parent="137" vertex="1">
                    <mxGeometry x="73.68764584129656" y="29.147899707522924" width="1.586106336734165" height="4.263164557324275" as="geometry"/>
                </mxCell>
                <mxCell id="147" value="" style="shape=stencil(lVbZbuMwDPwavxISqfO5x38UaLoxNk2KNN3j75deQ6lFx1P0zVE4Eo8hh4Pcve+f3nYDu/fL+fRz93t8vuwHuR+Yx+N+dx4v+jXIwyB3L6fz7sf59HF8nn+/PU2W09fr6dd0w58ZFyiECcTu73zgiPP/g8fZ/DAeF+ZeKNbOPpLnbXtOlLmz95k8eEAS+d4hvSKlbUDIFiCZct0GxEK1dylUSm4bkJlK6gApUArbgFoo9i9U1664Dagt6VeApwKypIBceoAQe1A358i5HhEoR/hE9T0gkQgE2Khz83IrTcVEraVBLhVy0gNqo9dtQCbXp2mRh9sIpd/6CVSJuCpdJYeCCI1sizRVFEQgX2whAiC4AlzPVz354gWOlk2CglbqmCwxTmukYFxyuNTKtWABgnoukzgLYETXQrx6IaEsaV0NwOM61DYlFlnKKAZtuVXhYAwKMNSIVMAYmFwyAM0bDtqbpi5wWOrfsmqgiFzKFJwFVDQsk5WsCYDJF1cAyKXvApKG2A8B1QwUQ4xt9l5lVOkIZmUQKr3uBpVFQD5h+4IoNUAMrMreAybtRpLi24y4DtcIe5pth3oHyeptUj3uaJ0opmokIEOOQh9vgZ3grDBctWXD3MitVhwQQs37WHUvg6FK35VCHt6e+7nCTUg3Em9mrycP+oub3n2ukMh33abEmCO9FDtEsYB/c5/90lw/Plfnl/FwmDfv5f921dajeU2Xh38=);lineShape=1;" parent="137" vertex="1">
                    <mxGeometry x="73.61934930268967" y="30.090565070001958" width="1.7901194551570183" height="1.0873637238288119" as="geometry"/>
                </mxCell>
                <mxCell id="194" value="" style="group" parent="137" vertex="1" connectable="0">
                    <mxGeometry x="-70.65000000000009" y="44.93999999999994" width="110" height="44.93872892719437" as="geometry"/>
                </mxCell>
                <mxCell id="195" value="f(i=1 , pichla=2 )" style="text;html=1;align=center;verticalAlign=middle;resizable=0;points=[];autosize=1;strokeColor=none;fillColor=none;" parent="194" vertex="1">
                    <mxGeometry x="15.65" width="110" height="30" as="geometry"/>
                </mxCell>
                <mxCell id="196" value="" style="group" parent="194" vertex="1" connectable="0">
                    <mxGeometry x="15.649193732231888" y="26.666300402283014" width="71.3725143296065" height="18.272428524911355" as="geometry"/>
                </mxCell>
                <mxCell id="197" value="" style="shape=stencil(lVjbUlsxDPyavGpsyddnSv+DGULJlBIm0NvfV2nGzrF8zrZ5C8nK6LKS1t7J3fvzw9t+x+7943T8uv95ePx43smnHfPh9Xl/Onzop53c7+Tu6Xjafzkdv78+Xv5+ezgjz5++HX+cT/h1sauVqj9bsft9+cZRLn+/+HzBvxxel/hCKQx4phAAPlGNAz5Q9gAfKY7+JEoC8ELJDfhKHp3viUf/PZOv2walkNTRIFKJwCCSS2OGHDlk4ElkNAhU3LZBzsRjzBp0zcCAKY9BS6QAspqKjSF4coAWSYjHGIIWHvAiFht0VCcTMBAKY9B6RASVDvozj0wK5EDQQSgbg0rM2wZSyY1pzQFmSQLFMehcKADyiSOfB4Oi7QaC5tiy3g2UrSCt7KmU0aBQAVzyxQatLSUgBh8ojP9BexYVzntLbx0KDFxSKhmPUhtS61RqGen43Cq/XgUK4wjTIZgBkTwFc35tdV/FO2Jv8RVkVEkx+uOdThgwMNTATf8AkKLPqwW+QIccW3zG+MmfBAq8ho9goq75g5aUs9NO8QLP91PBGPS94qfzGeafJ/9RA7j269J/QGjXfl3mB/LHNpjmH+Mn/iTsz3R+hvWa/Ucr2bXqLPmPG1ImPG7IMf//0ZBzx0MCzQStYIS6tuiWCYIFmBsMqbTVhsQNP8UbcLwTgQQPiDrhcf6n83FD3ob3VqvoxkCKTkiKxSP+xDZeFxsPEbQ0bxcbtQI+6Aq2BA1w4uqStxEwXAE+W6FSHSVACc1pNlKotLbbkkJljEGlEDKQqWtUmUNdMAWtyhy1mRQrtrJAOaeSNI6FU2UeAfFU9Iox6NzaktVm1sUMZ6mqbrPMVLijG5c6YJpZrwYMqJFyExvdwMH1rdcbkyWtDLrEapmMQGC8MJUIZgDoFc2DOpRgK+0rrLSS2YhevWYyGAGquk1atWkjuol3qnV6N127dROXER/hJVNHULY3fYf8Ke0K2gNoB6zjVUOMtOhbcQtvLr1dFm7ii8WjAuhKlRvx0/noZaO2Eb3Ao5eZrumveI/zWa0/DOq10DRXA7nVAL4VdZV1xUNG91ePKx6+FVW7cxx+i7r1beyfeP1wfYh7Ory8XN7xlr/bhzv96vLoJ/d/AA==);lineShape=1;" parent="196" vertex="1">
                    <mxGeometry y="0.23644373002071006" width="28.965736569416784" height="13.767802135456641" as="geometry"/>
                </mxCell>
                <mxCell id="198" value="" style="shape=stencil(lVjbUhsxDP2avGp8l/VM6X8wQyiZUsKE0MvfV27qZS1vDsPbZlcnsq4+0i7evD7evex3wb2eT8fv+1+H+/PjLn7ZhXB4ftyfDmd92sXbXbx5OJ72307Ht+f7y++XuybZnn4cf7Z/+H3BhUouN1Rwf/6/ocD/Xny9yD8dntfymUoY5DOlDOQTRTfIVwoOyAcSHuR9oJQgIJURkKiiE3mSOgKYcoSA6kcXOfLIBt9PvAAi+QABzmgoFJDRzno1CGVwJC8UxrDFQCwAwMRxBBRotM9UjQah5AEgUhrjkALlAgDqpVFDypTrdUDtFi7ytXthU75QGTMpO2JgQSY/pmoOMPNS/7dFXqMMDGabqFmDjGKmDhoNLp4yMFhjZrKiRGJU/Y6C0VAoAhe1PDYAgWnU0nLMOw7dzdsAoWgAmSKonVTIGUDtOrfDHGzcauj1ug3QYhs1VNwki554bMK1wsxmb7u2+K5zG6DFawCRMvBSdSRjh5HcQ7kNyDYOovUEjFYTZUwNYQrAaP3MEyACDVJ7A1oDQMGJkHMWgNqqAtJ0JMYa6ng16CHR1eCdm85UYeRUhRQLEFBBCuCxC+ibiAFxAhSQG3oArhYgoIKaUwwLePfDteTIeVKBkqNM6Sc4dKW7fQVIGBCKBTiU4FqkU+TKBxrYAlAbaDYYDQyvLP1s7tzmaHQk7lfUuuaQ0XriuUhRfldLxxSAGGJL12wB0K2aCMkCBOW3WNLaWg8iS5tVXVHkxNIrfYMoYktOtgDEHt67xAoAc6P2wK5LDmv4HECvCOsl6ePHNiBuBAJ1JhZL1TXUHhjNqTOq9b0ImqXyHWt06A16GxCnGnVQQ+berRf2gG1QWiuG0EQ4DKRk2YPSA3QHRbZDGTPM1uiojpFWRyPaN8+VyomQBl97712YKOZYOneWMTWU63qUrTZZNZIo0Ml2e2XriDB5G2blmQ64aGoxOm6gPumsg3LsZOXKecz1ln1vOdsxtpw16SgAApB7PBf5AocTnubJBFcNYu+R5CH/1PHKlE2skH/qhFsMIOMcTZOGACu5Dd0j6VarHJqhNQXG9qVuRuRQAWz2QzrkIgDbMHtt8ojhsh0R9Y0HV6F+Nr1C/RYRoPbpawF4ONj7aaYUqKCNxaNX1Sa8guKxlBPeD0XLVbVdgijr3wUrj9q1yhcrj2a9efPhyKMtQCZ2Rh4N0G1rkK08WrgVO184SLRbeOz5Ybx49g8aC+erwPVec03ecGDf74ar8maFiTeY1S4kPBy/Pr0U/lBeH9430A+Hp6fLAnv93W6s9dVl2x1v/wI=);lineShape=1;" parent="196" vertex="1">
                    <mxGeometry x="0.5842029919442666" y="11.439837717442288" width="3.5047843044464035" height="5.061194482885605" as="geometry"/>
                </mxCell>
                <mxCell id="199" value="" style="shape=stencil(lVnZThxBDPyafbX6Pp5J8h9IIWEVAoiQ6+9To1UPa/dMTXiDXVe7XT7a9p7izY/72+e7U3A/Xl+evt39Pn9+vT/FD6cQzo/3dy/nV/x1ih9P8ebL08vd15enn4+fL/8/3y6Sy1/fn34tJ/y54JykvICC+zs+8JcPPl3EH86PV+JeYlDiXjoRD1L06UlC3BeP0vTpRVzdF88SmxJvkvy+eJ3u7sWnffkuxWt53L4QboKEpAF12L8NyBL0jUBnIAZ7GFg0IEnvhH+4J2pAk+YIIEvWgBgkMw/3wckKKJSlGMXpmIhdOnEbzjNRkaKksA9IiGkdFwlHEA04r2tARhYQlhJCqWpApIGN87LRUMQTG3Be1ixlOI7lAljvOnf8uOQ2oA1OVkCUQgA4z5vszMMz2wBwom0olQYfzvM6gUof4bgNKFK10dWP6NoGtOGmFRAkMQ3dZlwFSyTjKjytaa1pXHIb4Ecwr4AsldiAG3tjdJFC/ABA036olYYGTEw6vGsTT1iCiW4CdKYhDRJXQJfGWMqWpeY4oEjUfmiB5jQ4sRricOU2AAmko7Uhfknla1MRaGUUnm0ASq8OvsaLQEs2H7qTShzXqgSnAdBJYql1+6L3NF697Uc02HLfEd4MkMYTuAKqOOK4XmzG9SaOhAa+TtECGvFD7/YFwieR0NrXYL4GEMfh654tIDGWun2yOi+V3rnB4hWiHKiYjGCFaQEUC2gHAG8B/YDXiSaWQcuNNU1XPOwi5jtxFTYjDo0okyMOaMp1cgQpNAtgcgRrRDc1ZB4bZWIpcQ1lutJBRtQ4AQ5iY6L1CDAZHQ/CdboSGzgWwEwrCb6dJH03oh5caqocrI3bNJs17JvEsm5gdt3/ZOl8J1bz3w1otn84SoliZwIcwd5ePHSmn8ZDVxjAj1dqBRSaQ21qXqGTVZpWp2CKtPFDw2ELh6dJh5bGDOGNFw40TRZQ6UCKtsxcCW1ZZe1xHSaugESHCLSWbmot2UuK5tVrWpunUwfa46jfFNDARl507FX3ouinWR8HgDdzDaKVtcfB0gre2DOHuaYHC2DtMQDeaFh7+L1Ry8yXIDoSP2CYC+ZKaRyxDai2BQJvrC5hIDUvL6xiOV2SbYFglSdGY6h22gbMtKwIFGd7UVwyERtys2NK4Sxl5IM2uvCtYI6jRqzLDd7tZmfzATpZtKZqNwnQebACqkaDo9uQNAXfshQiD0pEaGg/LGsnBgh2QfO22NpbxZnQWFZnJPhClqA9HSMNvuAHJ+s6kbdMvtn58m3BuA1APmjHQSfbGXlvJyfo9KzZsO86VFa2qrDFHhpZL51tMjS+3ZRksnNUkJ2FutnyJdrsuYlNGqPOzuputPl74sGIM99OnaqjSb8hzkLNWT85uoaGeDLinuQWxJsVp8x4ywzrKFbdV+L09GDvzh4l8GaJ5KfHYsWpm5LlnS1f3vl706E4/nj7aevL+eHh8svY9ff2pzB8dPkZLX78Bw==);lineShape=1;" parent="196" vertex="1">
                    <mxGeometry x="46.69110502456874" width="23.144464279434313" height="15.182304083307477" as="geometry"/>
                </mxCell>
                <mxCell id="200" value="" style="shape=stencil(lVjJUhtBDP0aX1WSutXLmZD/oAoTXCFAAdn+Ppq42kxr7EdxG4/fm9a+9C5dvd7fPO93yq9vL0/f978Pt2/3u/Rlp3p4vN+/HN78aZeud+nq7ull/+3l6efj7fH3882CXJ5+PP1avvDnyCuVUl5Yyn+Pb5iq/X/x9Yh/ODyu8Z3YJryRAXwVSjLhhakUQEikfSZkMgYEoz5rIJ20AYL/nSaCZqpApKbUy0RITKkCQqHOM8HGm7OEfjL6IGQhBjr0TGkWKRsVBYRKMps19+GZ84Sto5UEiCTMxLPWlikDM/kRqc2EQpYBoVANJzTo6u4iz2ayTgU4wj3Hs5mKOwKIVBuVOhMScQIEJpl1KEYVnLAIoDOhUQeuNhlGHISq0A9ZSWdX1zLOPEtIieqstOdUBmbVMlQcBM+pDKJPJYrUDCaEeHwHQqUMCpNXlRxE6rCSycmIg9AF6iDuuLn09USCcjTq7FnekZFGPp7wnRrws1CViO8d4VU3eOADHlV0LQ9IBY7p73gDdZiH9VZ4BVG3qUe9UQX68sj0FR6VeSYN+Eod4q1GPGqFspH/g5Cm3CIeyS+xrS3fB/7SkeNr+UE8a2xqi30gvteN/UH8nwrt2r9Q/jAoePwIsKdS6RFvUP6UIr6B+JSRrev8gv4K+bJquRcCrm8THuKNIx4FKMeZYunoMOFDJ3OHdYyXiDcQEBy7veMF6ps3CYyGX6a2wWN5PoevmwKUYIC2UV5XHcngiEZlJjRcob3nhQhqDUac2MjwVd9uKMc2PmsJjxIWq0rjMYKdrxJKbRap1mGG8+OQxDyumRS4zXiUwROBYWEsrvR8gq9haODyrUtnK/mUiVYWVzFsIH5mR6FklMK430b0nh9WNtOB1bG5XRreQ/k1GwXtImGuj+bpgETa6oD3NF8PLKxdZcxI563kNglblMKRbpla5wRKBc50TWJTSzI29EuejtusfbRgBx2WHEQnSCzznuUJR2sIbx+FUU6XEifHAlfNksccejoAfz/HqiRQ4wUfL0Uaksei0zz/0fctTu4MNwnHpx7wCiqY44sFPIPUdHyP8sNyVGLM4TnE8aYRjy6Zypib3vGoDy7VM8qDBkfHa5QH9eVPX5J9iPeH9xu5u8PDw/FCb/1/vMHzV8fbv3T9Dw==);lineShape=1;" parent="196" vertex="1">
                    <mxGeometry x="66.6930159039249" y="12.87882009135501" width="4.679498425681604" height="5.393608433556344" as="geometry"/>
                </mxCell>
                <mxCell id="201" value="" style="shape=stencil(lVjLbhsxDPwaXwlJlETpnKb/ESBObdSNA8fp4+/LrSF3yfWOkdt6l2OJ5HBEasMP77unt+0mhffz6fh9+2v/fN5t+Msmpf3rbnvan/Vpw48bfng5nrbfTseP1+fL77enyXJ6+nH8Of3D7wuOqecJlMKfy4tIWf69+HoxP+xfjXlr1jxSBPaZYjX2KVDNyL4Fay8U6rp9oZ6MPWcqvG4vlIqxz4kCsG/U7f5zp9TW7adwWAeKbrEDAJNYQI0jBrcBlYp1uWqICgB0ymwAEqmmdUBKlG2QpFCOAFCoWB+kDVrdBjQqYgAtEYM0s7LSOt0KjJLSIHQL0C2BRHP1zO4aJeB0DsTRApgKyENmz9WeYZSykFgfehmbvF0MyZOvV8juok4Xv0IB1KhpsH/mA6o35WbvPkoRhFX0c/Z5SIAaIp58TUsUUKNFn4emYQB5aNcgXgGZGGRag1it01IpAxHQNLmwKiACH7qWvCWflmgDOqwAJ6wTACSua4lWD+iAfF2jnrwPDDKtAKd8ChDkQ/dirLln5EMfO54BOqD3tCUnlQ0nTp0WD+iArRrW6qLUiXGmW/UAdEJP1GgLAKC3ko+zByQU1kKSvdMN1wMnD7hTQE4ENHGCyFcoRQ+IKHGqc26FShVtSUVAPCAheiuZlwWEwipDSeclitja/Ak0rYArzquGygyuaS8CFR6KU8WFRR4A+WIIFBYIwUXdFuy7ozN5SVesAp8D6IHjSq4J5IaeH+KOIPUKATRK7lTUkxjwW5ng1FgPaqRktY/EznqHApSsXrudK6BRAqku4snUr53pbUAksSvM2HK7Y6q+69MlUKubo291OyYTixcaDVMGusE8mvNZA4SkjMMYqK6AAAtCZ5pqV1D2ZbCCtuvBJkL5iIYsHQiia4ACFRAlHTniogFC/Nahxs1lkoZ8ro1N7uCtbZTIitAQO0CCk6hG1doXLH06Ii0mRUHEILFE0kmUQYGm0erMJl3UteogaiM6zb6gbwhe9PSNAH+DJ9Gdm4CFzuOLhuXfw7EhjI5lmAdYZMHPDAGKY/BjUhh0XQm942YYsrRiLn7vSOSSV6B75vUzm2GvoNhV9vqJA7kgPU7T8rYJkuDTd1l3zPXh/7XZy/5wuNy6zb/7azZ9dbmi48e/);lineShape=1;" parent="196" vertex="1">
                    <mxGeometry x="9.354295589055937" y="1.654531076931562" width="2.946527346118297" height="3.923684361236085" as="geometry"/>
                </mxCell>
                <mxCell id="202" value="" style="shape=stencil(lVfZbttADPwavRLc5Z7PafofAeLUQl07cNzr70tVWNlcWWPkTVFmxGt4eJCnj/3L+27w/HE5n77vfo+vl/0gXwbvx+N+dx4v+jTI8yBPb6fz7tv59PP4Ov/9/jIhp6cfp1/TF/7MPEeSJpLnv/OLkoj5/5uvM/4wHm/xTNEbQvaU4jZBLUQ2hOSJ0zZBmFwxhBgo1W1CYKrREEIkDyxEoWBdkkAFWEiJYjYErwS/TSienHXJqc28TaiZvDMEhiEovvZ4VLZaKHGHDyCAWnt/HPa/UrIZEmKgCsXXYGtGtWB8tbIjxvhi/a/kHMQHsfEyFVSAQsUG7LTmmNBn1GMLmeKaAFRaE5XQEzwqQiLfxeCIUZZi8/iaVY88ipQsXmWOqhZboy+tTw5/v1ORkEeqTiT2+661xRa+U512DfIn913AOJ+FpMd7rFL2nf9olCo+2vz4R11c7OgNJMAfx8vUWYY7yYM2tvhCAY+JaB3SthQ8t3gl6YxKpg6smibjSfo5QpGm4aUIiRyIIa1UJLnt0Pv7TPejnRQhtzf3N6bOBTvtYml5u7+TXSvTUudMGVhQoXU7OUfYmm65IhZlxLal77vUK2NaWcCAtE68waMV7tt+vCoPr1hHRXoDGWjb9cN30i5QKjcdL/gCVyz3R45OM3RG6dnV+a/DF8S7av0q7ZbcwncFcK2EW/7Y/BQtGI63E1CBy4n7XaaXLzpBPn0pP8Trw/UsfxsPh/mqv/1/f8brq/kngDz/Aw==);lineShape=1;" parent="196" vertex="1">
                    <mxGeometry x="8.644592896538143" y="2.625251865989412" width="2.3839374479419533" height="0.8001902056565973" as="geometry"/>
                </mxCell>
                <mxCell id="203" value="" style="shape=stencil(7VnJUhwxDP2auapky/JyJsl/UAWEqRBIEbL9fdSZctOWex5wy4Hb0Oi1ZUlPWx/k4vvt5bfrQ+TvT48PX65/Ha+ebg/y4RDj8f72+vH4ZL8O8vEgFzcPj9efHx9+3F+d/v52uUguv74+/Fze8PuEy8S6gCL/OT1gKuXfg08n8bvj/Ua8EbdBXKjwefHApGmQb1QykA8UeJAPiRQdEKiM+tsFRAEgEocRUEgqBDiVJFF9ARAHQIqUIrxDLiOgUWrYqiNAlQR6LYxe00YtnJevlEYbZelWOyNfZJRPJILkdZLPwEKVQvbyyAWFsnu/difuymdqxctHYM9McXo/sr9SSl4+AXuaNSZ59H6hxpP+gGZCcXo/sk+kEif7A31ip+DWv+C+cce/AuJhT55BvK3arvIBpq1MedTf+CJAvvn3q6VVxPjJwRpJ0YXZR5ClCHRjo0AYQzQpVeACEQoj55OQJABonSIrIPQ0sO8EJXUnWK0BLDabVPaADMJ6yWrRq6QAkM1N7C/NILBLIAnerAmUm6LEznEVhnYpVEfHaYDcKa2nwhVg4Q6qRw2ePVphBTQAjyfkCGts5V7vVkCGALuDjicUq+LgDqX2LmUFJIqoIhRq46XtFQGZtfQM2gFmBkUqFd9JVfMDIJABkjuh9nA8ZyV3QmPYJ5jGabRSi7hPyJ5AyxPA6TZV5maJB1y6tf7vDQDdwQClekADJwRmT2rTMmGd/BEVHrFziQbDdTGTegDKlYvZgwc0wKBmyXU8YWOHfYQRJvojUN5olhqzB2R0CSvT1QMisuvUCLeKpxEDTK5GjY8BXKdn0YRqkN3BtbYGEHSCUI0ewNhzrvCa86EfMqX6JkDxyfIllSpVfdOlWy9RrzWrRfNEOdRxL4DJ0zA0VkZugw9fWifKwfAuvT96LYGyHz1fwdE8UQ5mprcClrro7Kp9ONsHJD8bWsQnVHlnyoXeE+0D2AfTUhdR5WXvaqu8BbUb7Hssq5Sw3bA84/oTXITKWmc3/UlAbV/0hDAlUbgW6T3bpsd6AeCH7gjbPgO4Kdf6RDRCmJVc2lCFrWu2Iuj2EhH2WLn4wmtjUEYAi1Y3BhXYC2T2fLAGPwOzPg9umxEigxPSVEbtSQN3kDXUNiohAkmkyP7SqO7avOs2VmrBB1SycdT1iSqdIftNWabiBt6Muzjpfl2jlSGB3ldQ7yuo/3kFFfuaYJN90QQgPp61QYapzyqWeyN4/0T5ZeeMEuOU5vBSO/vEK6lHyLl4HvU3BqH3a2+1Nnt/tIjRvtdZey/M99QT4Nq1dIKeca9bwqTeTe6KWy5z2sA91TTRBpieeeoz4faefbngnqzPiGt24vBjhTc8w0VN8Hmf+yLzHK287oiF4udw3H9PSY1h4U1+GmW4CzGCBieOlsxKxYujlfEbP+y9KG4/nr8h3hzv7k6fILf/998c7dHpe6V8/As=);lineShape=1;" parent="196" vertex="1">
                    <mxGeometry x="59.80533354599504" y="1.298657896198165" width="1.888911066431226" height="5.078426449197067" as="geometry"/>
                </mxCell>
                <mxCell id="204" value="" style="shape=stencil(lVhJchsxDHyNriiS4Iaz4/zDVZZjVRTJJTvb74OJQpkENa34Nhqxh1gaDZAbvnt9fnjZboJ7fTsdv25/7h7fnjf8aRPC7vC8Pe3e9GnD9xu+ezqetl9Ox++Hx/Pvl4dl5fL07fhj+cKvM06EXF1Qwf0+vwkU8t8Xn8/r97tDt74mCuP6QgLWF0/Cw3qfyLl1QGZycTTIUYzrgBSo+hFQyPM6IAbrMkeSsA7gQF4GgH5C6jogMJUwAJKjAqLkM8nodKrkPAB4C8gRRqlSMWlz5FEaSMaglkgVeJCppnF9hbyolEZ7aiAGOVCH45iDqklLAJCIR+LVAndQmnEeAUIMQqQ+xzIAxJMDxOOJFhKoYKaGMaoSGxWv14InHmkhiTxganYtqx2gAqe1nqMBZGLAVHUxswUkYJK66MQCMgJopicAosZisQGUlvs1gFQLqAUAVIHG8pFKEZBPdyjJAlD9qNNi8iAUAZc0rP/y2gEKCitT9BYgyGnfVLQHALaKozSZVIEPWpBBLCABttZL1DuAQ7JUpkyrUiGTLjrdUQP1BgWkYAERmSRN2DuAQ1xylKd6KAgQWr/sSxQljikHC8iYfDasl4axVg9WBAoFJDO5MacDZOSDlqjxoVIAHXQRgQlQ0A6ZgukP0oantZoOE1uh8jHVqR7QJKOZNvXgnYPj2McROlhYdVWhAYAkLe59nAA5Ym1R6YsUlBDXaYfSxO16a5+LNMES0uEhGf3mpujXxxOmZHTDtz2vh5XKSCYVEtSCJmrUBBuKt6OGDmTIgQsJ+oEPhNTZ+U0HSuTvxLustQC+nywn9CBRQHy8swFNWGG86slIoqjdCgiGzof22OBhClgBo0k6MaJhLE5ziYZBUKmpi+Y0JvCslCcNW4iLaCrWpIx1W1vJyCMlCmoM0RrkmktrmuqSWe+wBou1B+pjbj3gP9dPLLphzzTB3PB3Os/fiKfYg5jDs4LY+OAzT9ct3gGMDTLC5XEPnBzweOj84IXH7fX68H678rTb78+XM/3/9jZGX51vcvj+Dw==);lineShape=1;" parent="196" vertex="1">
                    <mxGeometry x="63.29845210906467" y="2.481599305239911" width="1.586106336734165" height="4.263164557324275" as="geometry"/>
                </mxCell>
                <mxCell id="205" value="" style="shape=stencil(lVbZbuMwDPwavxISqfO5x38UaLoxNk2KNN3j75deQ6lFx1P0zVE4Eo8hh4Pcve+f3nYDu/fL+fRz93t8vuwHuR+Yx+N+dx4v+jXIwyB3L6fz7sf59HF8nn+/PU2W09fr6dd0w58ZFyiECcTu73zgiPP/g8fZ/DAeF+ZeKNbOPpLnbXtOlLmz95k8eEAS+d4hvSKlbUDIFiCZct0GxEK1dylUSm4bkJlK6gApUArbgFoo9i9U1664Dagt6VeApwKypIBceoAQe1A358i5HhEoR/hE9T0gkQgE2Khz83IrTcVEraVBLhVy0gNqo9dtQCbXp2mRh9sIpd/6CVSJuCpdJYeCCI1sizRVFEQgX2whAiC4AlzPVz354gWOlk2CglbqmCwxTmukYFxyuNTKtWABgnoukzgLYETXQrx6IaEsaV0NwOM61DYlFlnKKAZtuVXhYAwKMNSIVMAYmFwyAM0bDtqbpi5wWOrfsmqgiFzKFJwFVDQsk5WsCYDJF1cAyKXvApKG2A8B1QwUQ4xt9l5lVOkIZmUQKr3uBpVFQD5h+4IoNUAMrMreAybtRpLi24y4DtcIe5pth3oHyeptUj3uaJ0opmokIEOOQh9vgZ3grDBctWXD3MitVhwQQs37WHUvg6FK35VCHt6e+7nCTUg3Em9mrycP+oub3n2ukMh33abEmCO9FDtEsYB/c5/90lw/Plfnl/FwmDfv5f921dajeU2Xh38=);lineShape=1;" parent="196" vertex="1">
                    <mxGeometry x="63.23015557045778" y="3.424264667718944" width="1.7901194551570183" height="1.0873637238288119" as="geometry"/>
                </mxCell>
                <mxCell id="148" value="since arr[pichla]&amp;gt;arr[i]&lt;br&gt;u can consider taking it" style="text;html=1;align=center;verticalAlign=middle;resizable=0;points=[];autosize=1;strokeColor=none;fillColor=none;" parent="1" vertex="1">
                    <mxGeometry x="-1270" y="-730" width="150" height="40" as="geometry"/>
                </mxCell>
                <mxCell id="206" value="arr[pichla] is not bigger so cant take it" style="text;html=1;align=center;verticalAlign=middle;resizable=0;points=[];autosize=1;strokeColor=none;fillColor=none;" parent="1" vertex="1">
                    <mxGeometry x="-1400" y="-680" width="220" height="30" as="geometry"/>
                </mxCell>
                <mxCell id="208" value="-1e9" style="text;html=1;align=center;verticalAlign=middle;resizable=0;points=[];autosize=1;strokeColor=none;fillColor=none;" parent="1" vertex="1">
                    <mxGeometry x="-1220" y="-650" width="50" height="30" as="geometry"/>
                </mxCell>
            </root>
        </mxGraphModel>
    </diagram>
</mxfile>